<?xml version="1.0" encoding="utf-8"?>
<!-- Generator: Adobe Illustrator 16.0.0, SVG Export Plug-In . SVG Version: 6.00 Build 0)  -->
<!DOCTYPE svg PUBLIC "-//W3C//DTD SVG 1.1//EN" "http://www.w3.org/Graphics/SVG/1.1/DTD/svg11.dtd">
<svg version="1.1"
	 id="svg3390" xmlns:cc="http://creativecommons.org/ns#" xmlns:inkscape="http://www.inkscape.org/namespaces/inkscape" xmlns:dc="http://purl.org/dc/elements/1.1/" xmlns:sodipodi="http://sodipodi.sourceforge.net/DTD/sodipodi-0.dtd" xmlns:svg="http://www.w3.org/2000/svg" xmlns:rdf="http://www.w3.org/1999/02/22-rdf-syntax-ns#" sodipodi:docname="logo.svg" inkscape:version="0.91 r13725"
	 xmlns="http://www.w3.org/2000/svg" xmlns:xlink="http://www.w3.org/1999/xlink" x="0px" y="0px" width="117px" height="32px"
	 viewBox="0 0 117 32" enable-background="new 0 0 117 32" xml:space="preserve">
<sodipodi:namedview  id="namedview3392" bordercolor="#666666" pagecolor="#ffffff" guidetolerance="10" gridtolerance="10" objecttolerance="10" borderopacity="1" inkscape:zoom="13.179487" showgrid="false" inkscape:cy="16" inkscape:cx="58.5" inkscape:pageopacity="0" inkscape:window-maximized="0" inkscape:window-y="0" inkscape:window-width="1223" inkscape:pageshadow="2" inkscape:window-x="0" inkscape:window-height="707" inkscape:current-layer="svg3390">
	</sodipodi:namedview>
<path fill="#F6921E" d="M28.873,0.25l-7.015-0.016L21.825,15.8c-0.001,0.647-0.243,1.216-0.73,1.707
	c-0.488,0.49-1.059,0.734-1.718,0.733l-5.064-0.01l-0.01,4.91l10.044,0.021l0.007-3.739l3.348,0.008l-0.027,12.337l1.133,0.003
	c1.74,0.003,3.156-1.405,3.159-3.146L32.02,3.41C32.024,1.669,30.615,0.254,28.873,0.25 M11.686,25.746
	c-0.489-0.492-0.734-1.062-0.733-1.708l0.012-5.816l-3.421-0.006c-0.657-0.001-1.232-0.247-1.722-0.733s-0.733-1.058-0.731-1.716
	l0.017-8.504c0.001-0.657,0.247-1.229,0.739-1.712c0.491-0.486,1.067-0.728,1.726-0.726l10.93,0.022l0.01-4.618L3.66,0.197
	C1.918,0.193,0.504,1.603,0.5,3.344L0.448,28.557c-0.004,1.742,1.406,3.156,3.146,3.16l20.733,0.042l0.011-5.249l-10.946-0.023
	C12.745,26.484,12.176,26.239,11.686,25.746 M18.48,14.889l0.013-6.695L8.451,8.174L8.438,14.87L18.48,14.889z"/>
<path fill="#626366" d="M49.372,17.961l0.002-0.614l-3.305-0.001l-0.007-1.588l2.847,0.002l0.001-0.614l-2.852-0.001l-0.007-1.687
	h0.199v0.003h1.657V8.43H46.25l0,0l-5.579,0.003V8.43h-1.657v5.031h1.657v0h0.473l0.007,1.68l-3.202-0.003l0.001,0.615l3.205,0.001
	l0.007,1.591l-3.655-0.001l-0.003,0.613L49.372,17.961z M46.25,12.845h-2.306v-1.416l2.306-0.001V12.845z M40.671,10.724V9.139
	l2.444-0.001v1.585L40.671,10.724z M40.671,11.43l2.444-0.001v1.417l-2.444,0.001V11.43z M45.021,13.458l0.008,1.685l-2.828-0.002
	l-0.007-1.681L45.021,13.458z M45.032,15.755l0.007,1.59l-2.827-0.001l-0.007-1.591L45.032,15.755z M46.25,10.722l-2.306,0.001
	V9.138l2.306-0.001V10.722z"/>
<polygon fill="#626366" points="84.72,7.296 84.72,6.682 81.407,6.684 81.407,4.691 83.435,4.689 83.435,4.077 77.683,4.08 
	77.684,4.692 79.875,4.691 79.875,6.685 76.468,6.687 67.092,6.691 67.09,4.136 65.557,4.136 65.559,6.692 56.438,6.696 
	56.438,7.31 60.257,7.307 60.257,13.164 64.515,16.212 58.726,20.618 53.219,20.618 52.391,16.052 55.021,12.016 55.024,8.387 
	53.744,8.386 53.744,11.782 52.09,14.393 50.913,7.896 50.913,7.312 55.646,7.311 55.646,6.696 54.125,6.696 54.125,4.136 
	52.59,4.136 52.592,6.697 50.913,6.699 50.913,4.077 49.373,4.077 49.373,6.7 44.226,6.701 44.226,5.323 47.902,5.321 47.902,4.707 
	44.226,4.708 44.223,4.077 42.69,4.078 42.69,4.709 39.014,4.712 39.014,5.325 42.691,5.324 42.691,6.703 37.506,6.705 
	37.506,7.319 49.373,7.314 49.373,7.902 50.872,16.317 47.661,21.383 48.918,21.385 51.161,17.941 51.774,21.385 51.956,21.385 
	53.358,21.385 60.255,21.385 60.255,21.378 60.386,21.378 65.897,17.206 71.757,21.405 74.374,21.405 67.201,16.223 71.213,13.185 
	71.213,8.384 69.684,8.384 69.684,12.276 65.816,15.221 61.797,12.316 61.797,7.307 76.468,7.3 79.875,7.298 79.875,21.405 
	81.407,21.405 81.407,7.297 "/>
<polygon fill="#626366" points="99.9,11.995 98.478,12.674 98.478,6.349 100.008,6.348 100.008,5.58 98.478,5.582 98.478,4.077 
	96.943,4.077 96.943,5.584 94.664,5.584 94.665,6.351 96.943,6.35 96.943,13.408 94.758,14.451 91.758,14.451 91.758,4.077 
	90.223,4.077 90.223,14.451 84.136,14.451 84.136,8.787 82.921,8.787 82.921,15.217 83.455,15.217 84.136,15.217 90.223,15.217 
	90.223,21.403 91.758,21.403 91.758,15.217 94.931,15.217 96.943,14.256 96.943,20.789 95.976,20.789 95.976,21.403 96.943,21.403 
	98.478,21.403 98.478,20.789 98.478,13.524 100.232,12.687 "/>
<rect x="39.902" y="19.033" fill="#626366" width="1.535" height="2.352"/>
<rect x="45.304" y="19.033" fill="#626366" width="1.534" height="2.352"/>
<polygon fill="#626366" points="114.469,25.42 106.601,19.272 110.185,16.975 110.185,8.362 108.631,8.362 108.631,16.252 
	105.36,18.301 102.733,16.252 102.733,8.975 107.871,8.975 107.871,8.362 106.594,8.362 106.591,6.348 110.159,6.347 110.159,5.579 
	106.591,5.582 106.591,4.136 105.057,4.136 105.057,5.582 101.158,5.584 101.158,6.351 105.057,6.349 105.061,8.362 101.272,8.362 
	101.272,8.432 101.272,8.975 101.272,17.128 103.978,19.172 100.419,21.405 103.272,21.405 105.253,20.135 112.253,25.42 "/>
<polygon fill="#626366" points="88.441,8.337 87.395,5.326 85.871,5.328 86.919,8.338 "/>
<polygon fill="#626366" points="88.126,11.443 87.08,8.432 85.558,8.432 86.605,11.444 "/>
<rect x="77.076" y="8.788" fill="#626366" width="1.215" height="11.831"/>
<path fill="#F6921E" d="M38.816,27.854v-3.479h2.219c0.687,0,1.151,0.107,1.393,0.329c0.245,0.22,0.364,0.638,0.364,1.259
	c0,0.753-0.107,1.258-0.323,1.511c-0.217,0.254-0.649,0.381-1.297,0.381H38.816z M39.356,27.522h1.563
	c0.573,0,0.942-0.083,1.108-0.251c0.166-0.165,0.249-0.536,0.249-1.112c0-0.633-0.073-1.031-0.215-1.201
	c-0.145-0.169-0.488-0.251-1.035-0.251h-1.671V27.522z"/>
<path fill="#F6921E" d="M46.819,27.117h-2.426l-0.37,0.737h-0.571l1.754-3.479h0.758l1.79,3.479h-0.563L46.819,27.117z
	 M46.661,26.822l-1.064-2.126l-1.049,2.126H46.661z"/>
<path fill="#F6921E" d="M51.717,24.375h0.579L50.6,27.854h-0.772l-1.712-3.479h0.576l1.278,2.63l0.126,0.266
	c0.046,0.104,0.086,0.194,0.116,0.268h0.013c0.07-0.173,0.15-0.348,0.237-0.53L51.717,24.375z"/>
<path fill="#F6921E" d="M56.704,24.375l-1.812,2.026v1.453h-0.542v-1.453l-1.764-2.026h0.628l1.027,1.176l0.196,0.226
	c0.027,0.026,0.06,0.066,0.098,0.112l0.096,0.115h0.013c0.041-0.051,0.074-0.09,0.095-0.115l0.095-0.112l0.2-0.226l1.024-1.176
	H56.704z"/>
<rect x="57.48" y="24.375" fill="#F6921E" width="0.542" height="3.479"/>
<polygon fill="#F6921E" points="63.397,24.375 63.397,27.854 62.51,27.854 60.501,25.486 60.176,25.096 60.014,24.903 
	59.853,24.709 59.838,24.709 59.843,24.839 59.845,24.97 59.845,25.23 59.845,27.854 59.305,27.854 59.305,24.375 60.189,24.375 
	61.94,26.45 62.396,26.994 62.627,27.266 62.851,27.538 62.865,27.538 62.86,27.408 62.856,27.276 62.856,27.017 62.856,24.375 "/>
<path fill="#F6921E" d="M70.113,25.316h-0.538c0-0.279-0.064-0.457-0.194-0.532c-0.128-0.075-0.432-0.112-0.907-0.112
	c-0.567,0-0.932,0.035-1.096,0.107s-0.246,0.232-0.246,0.482c0,0.28,0.065,0.452,0.192,0.513c0.129,0.061,0.511,0.104,1.149,0.124
	c0.746,0.024,1.221,0.094,1.422,0.207c0.203,0.113,0.304,0.368,0.304,0.765c0,0.43-0.116,0.705-0.349,0.831
	c-0.233,0.126-0.749,0.188-1.542,0.188c-0.69,0-1.15-0.062-1.379-0.188c-0.229-0.126-0.342-0.382-0.342-0.766l-0.004-0.156h0.538
	v0.087c0,0.311,0.064,0.505,0.196,0.578c0.133,0.077,0.467,0.115,1.007,0.115c0.621,0,1.002-0.038,1.146-0.115
	c0.143-0.073,0.213-0.277,0.213-0.604c0-0.212-0.048-0.353-0.145-0.423c-0.099-0.071-0.302-0.114-0.609-0.127l-0.562-0.021
	l-0.534-0.02c-0.812-0.041-1.218-0.349-1.218-0.919c0-0.395,0.118-0.658,0.354-0.792c0.237-0.134,0.71-0.198,1.416-0.198
	c0.715,0,1.184,0.062,1.4,0.184C70.004,24.647,70.113,24.912,70.113,25.316"/>
<path fill="#F6921E" d="M72.962,24.34c0.905,0,1.469,0.094,1.699,0.288C74.887,24.818,75,25.299,75,26.067
	c0,0.828-0.109,1.337-0.326,1.532c-0.219,0.194-0.787,0.289-1.712,0.289c-0.92,0-1.49-0.095-1.712-0.285
	c-0.222-0.194-0.333-0.689-0.333-1.49v-0.244l0.007-0.329c0-0.463,0.145-0.776,0.431-0.947C71.642,24.423,72.178,24.34,72.962,24.34
	 M72.957,24.672c-0.759,0-1.201,0.061-1.331,0.181c-0.129,0.123-0.192,0.544-0.192,1.261c0,0.719,0.063,1.139,0.192,1.262
	c0.13,0.123,0.572,0.184,1.331,0.184c0.762,0,1.205-0.061,1.335-0.184c0.127-0.123,0.191-0.543,0.191-1.262v-0.229l-0.003-0.327
	c0-0.385-0.089-0.627-0.267-0.732C74.037,24.722,73.617,24.672,72.957,24.672"/>
<polygon fill="#F6921E" points="76.518,24.375 76.518,27.489 78.983,27.489 78.983,27.854 75.979,27.854 75.979,24.375 "/>
<path fill="#F6921E" d="M83.081,24.375h0.541v2.436c0,0.443-0.121,0.734-0.366,0.872c-0.245,0.14-0.758,0.206-1.54,0.206
	c-0.732,0-1.229-0.064-1.493-0.2c-0.265-0.132-0.396-0.386-0.396-0.759v-0.119v-2.436h0.541v2.436c0,0.331,0.072,0.537,0.221,0.623
	c0.147,0.082,0.51,0.125,1.089,0.125c0.627,0,1.018-0.04,1.172-0.124c0.154-0.081,0.231-0.29,0.231-0.624V24.375z"/>
<polygon fill="#F6921E" points="86.562,24.738 86.562,27.854 86.021,27.854 86.021,24.738 84.458,24.738 84.458,24.375 
	88.109,24.375 88.109,24.738 "/>
<rect x="88.95" y="24.375" fill="#F6921E" width="0.54" height="3.479"/>
<path fill="#F6921E" d="M92.526,24.34c0.904,0,1.47,0.094,1.698,0.288c0.228,0.19,0.339,0.671,0.339,1.439
	c0,0.828-0.106,1.337-0.326,1.532c-0.217,0.194-0.787,0.289-1.711,0.289c-0.922,0-1.491-0.095-1.712-0.285
	c-0.223-0.194-0.334-0.689-0.334-1.49v-0.244l0.007-0.329c0-0.463,0.146-0.776,0.432-0.947C91.206,24.423,91.74,24.34,92.526,24.34
	 M92.521,24.672c-0.758,0-1.203,0.061-1.33,0.181c-0.129,0.123-0.192,0.544-0.192,1.261c0,0.719,0.063,1.139,0.192,1.262
	c0.127,0.123,0.572,0.184,1.33,0.184c0.761,0,1.205-0.061,1.335-0.184c0.126-0.123,0.19-0.543,0.19-1.262v-0.229l-0.002-0.327
	c0-0.385-0.09-0.627-0.267-0.732C93.601,24.722,93.183,24.672,92.521,24.672"/>
<polygon fill="#F6921E" points="99.637,24.375 99.637,27.854 98.747,27.854 96.739,25.486 96.413,25.096 96.251,24.903 
	96.091,24.709 96.076,24.709 96.08,24.839 96.083,24.97 96.083,25.23 96.083,27.854 95.542,27.854 95.542,24.375 96.428,24.375 
	98.179,26.45 98.635,26.994 98.863,27.266 99.087,27.538 99.102,27.538 99.098,27.408 99.096,27.276 99.096,27.017 99.096,24.375 
	"/>
<path fill="#F6921E" d="M104.192,25.316h-0.537c0-0.279-0.062-0.457-0.191-0.532c-0.129-0.075-0.432-0.112-0.91-0.112
	c-0.565,0-0.93,0.035-1.094,0.107c-0.165,0.072-0.246,0.232-0.246,0.482c0,0.28,0.062,0.452,0.192,0.513
	c0.129,0.061,0.512,0.104,1.147,0.124c0.748,0.024,1.221,0.094,1.424,0.207c0.202,0.113,0.305,0.368,0.305,0.765
	c0,0.43-0.118,0.705-0.35,0.831c-0.233,0.126-0.748,0.188-1.544,0.188c-0.689,0-1.148-0.062-1.377-0.188
	c-0.229-0.126-0.344-0.382-0.344-0.766l-0.002-0.156h0.535v0.087c0,0.311,0.065,0.505,0.198,0.578
	c0.131,0.077,0.468,0.115,1.008,0.115c0.62,0,1.001-0.038,1.144-0.115c0.143-0.073,0.215-0.277,0.215-0.604
	c0-0.212-0.047-0.353-0.146-0.423c-0.098-0.071-0.3-0.114-0.608-0.127l-0.562-0.021l-0.533-0.02
	c-0.812-0.041-1.219-0.349-1.219-0.919c0-0.395,0.118-0.658,0.355-0.792c0.236-0.134,0.708-0.198,1.415-0.198
	c0.717,0,1.183,0.062,1.399,0.184C104.084,24.647,104.192,24.912,104.192,25.316"/>
</svg>
