<?xml version="1.0" encoding="utf-8"?>
<!-- Generator: Adobe Illustrator 22.0.0, SVG Export Plug-In . SVG Version: 6.00 Build 0)  -->
<svg version="1.1" id="Layer_1" xmlns="http://www.w3.org/2000/svg" xmlns:xlink="http://www.w3.org/1999/xlink" x="0px" y="0px"
	 viewBox="0 0 163.3 48" style="enable-background:new 0 0 163.3 48;" xml:space="preserve">
<style type="text/css">
	.st0{fill:#2064B7;}
</style>
<g id="Page-1">
	<g id="leanvp-chinaccelerator">
		<g id="LeanVP-logo-white" transform="translate(0.000000, 5.000000)">
			<g id="Group" transform="translate(120.535714, 3.571429)">
				<polygon id="Shape" class="st0" points="-81,13.7 -78.4,-5.4 -77,-5.4 -79.5,13.7 				"/>
				<path id="Shape_1_" class="st0" d="M-65.6,8.4h-9.1v0.3c0,1.3,0.3,2.3,1,3.1c0.7,0.7,1.6,1.1,2.8,1.1c0.7,0,1.4-0.2,2-0.5
					c0.6-0.3,1.1-0.9,1.6-1.5l1,1c-0.6,0.8-1.3,1.4-2,1.8c-0.8,0.4-1.6,0.6-2.6,0.6c-1.6,0-2.9-0.5-3.9-1.4c-1-1-1.5-2.2-1.5-3.8
					c0-1.9,0.6-3.5,1.7-4.7c1.1-1.2,2.5-1.8,4.3-1.8c1.5,0,2.7,0.4,3.6,1.3c0.8,0.9,1.3,2.1,1.3,3.7c0,0.1,0,0.3,0,0.5
					C-65.6,8-65.6,8.2-65.6,8.4z M-67,7.2c0-1.1-0.3-2-0.8-2.6c-0.6-0.6-1.4-0.9-2.4-0.9c-1.1,0-2.1,0.3-2.8,0.9
					c-0.7,0.6-1.3,1.5-1.6,2.7L-67,7.2L-67,7.2z"/>
				<path id="Shape_2_" class="st0" d="M-52.9,2.8l-1.4,10.9h-1.5l0.2-1.6c-0.5,0.7-1,1.2-1.6,1.6c-0.6,0.4-1.4,0.5-2.2,0.5
					c-1.3,0-2.4-0.5-3.3-1.5c-0.9-1-1.3-2.4-1.3-4c0-1.8,0.5-3.3,1.5-4.5c1-1.2,2.3-1.8,3.9-1.8c0.9,0,1.7,0.2,2.3,0.6
					c0.6,0.4,1.1,1.1,1.5,2l0.3-2.2L-52.9,2.8L-52.9,2.8L-52.9,2.8z M-59,12.9c1.1,0,2.1-0.5,2.8-1.5c0.8-1,1.1-2.2,1.1-3.7
					c0-1.3-0.3-2.3-0.9-3c-0.6-0.8-1.4-1.1-2.4-1.1c-1.1,0-2.1,0.5-2.9,1.4c-0.8,1-1.1,2.2-1.1,3.6c0,1.3,0.3,2.3,0.9,3.1
					C-60.9,12.5-60,12.9-59,12.9z"/>
				<path id="Shape_3_" class="st0" d="M-51,13.7l1.4-10.9h1.4l-0.2,1.8c0.6-0.7,1.2-1.3,1.8-1.6c0.7-0.4,1.4-0.5,2.2-0.5
					c1,0,1.9,0.3,2.5,0.8c0.6,0.6,0.9,1.3,0.9,2.3c0,0.2,0,0.4,0,0.6c0,0.2,0,0.4-0.1,0.7l-0.9,6.9h-1.5l0.9-6.8
					c0-0.2,0-0.4,0.1-0.5c0-0.2,0-0.3,0-0.5c0-0.7-0.2-1.2-0.6-1.6c-0.4-0.4-1-0.5-1.9-0.5c-1.1,0-1.9,0.4-2.6,1.1
					c-0.6,0.8-1.1,1.9-1.3,3.4l-0.7,5.4L-51,13.7L-51,13.7z"/>
				<polygon id="Shape_4_" class="st0" points="-26.5,2.1 -34.4,15.2 -38.5,2.1 -35.7,2.1 -33.7,9.5 -29.6,2.1 				"/>
				<path id="Shape_5_" class="st0" d="M-23.4,8.8c0,0.8,0.3,1.5,0.9,2c0.6,0.5,1.4,0.8,2.3,0.8c1.3,0,2.2-0.4,2.9-1.3l2,1
					c-0.7,0.9-1.4,1.5-2.2,1.8c-0.8,0.3-1.7,0.5-2.8,0.5c-1.8,0-3.2-0.5-4.3-1.5c-1.1-1-1.6-2.3-1.6-4c0-1.7,0.6-3.2,1.8-4.4
					c1.2-1.2,2.6-1.7,4.4-1.7c1.7,0,3.1,0.5,4.1,1.6c1,1.1,1.5,2.5,1.5,4.3c0,0.2,0,0.5,0,0.9H-23.4L-23.4,8.8z M-17.1,6.8
					c-0.3-1.8-1.3-2.7-3-2.7c-1.6,0-2.6,0.9-3.1,2.7H-17.1z"/>
				<path id="Shape_6_" class="st0" d="M-9.2,2.1l-0.1,1.1C-8.2,2.4-7.1,2.1-6,2.1c1.1,0,2,0.3,2.7,0.9c0.7,0.6,1,1.5,1,2.5
					c0,0.6,0,1.3-0.1,2.1l-0.8,6.1h-2.7l0.8-6.8C-5.1,6.6-5,6.4-5,6.2C-5,6-5,5.9-5,5.7c0-1-0.6-1.6-1.7-1.6c-0.7,0-1.3,0.2-1.8,0.6
					C-8.9,5.1-9.2,5.5-9.4,6c-0.1,0.2-0.2,0.5-0.3,0.9c-0.1,0.4-0.1,0.8-0.2,1.2l-0.7,5.5h-2.7l1.4-11.6H-9.2z"/>
				<polygon id="Shape_7_" class="st0" points="4,4.6 2.9,13.7 0.1,13.7 1.2,4.6 -0.3,4.6 0,2.1 1.6,2.1 2.2,-3.3 4.9,-3.3 4.3,2.1 
					6.8,2.1 6.5,4.6 				"/>
				<path id="Shape_8_" class="st0" d="M18.5,2.1l-0.8,6.6c-0.1,0.6-0.1,1-0.2,1.5c-0.1,0.4-0.2,0.8-0.3,1c-0.2,0.5-0.6,1-1.2,1.4
					c-0.9,0.7-2.1,1.1-3.6,1.1c-1.4,0-2.6-0.4-3.4-1.1C8,11.9,7.6,10.9,7.6,9.7c0-0.2,0-0.4,0-0.6c0-0.2,0.1-0.5,0.1-0.9l0.8-6.1
					h2.7l-0.8,6.5c0,0.3-0.1,0.5-0.1,0.7c0,0.2,0,0.4,0,0.5c0,1.2,0.7,1.8,2.2,1.8c0.8,0,1.4-0.2,1.7-0.6c0.4-0.4,0.6-1.1,0.7-2.1
					l0.8-6.8H18.5z"/>
				<path id="Shape_9_" class="st0" d="M24.1,2.1l-0.1,1c0.9-0.7,1.8-1,2.8-1c0.8,0,1.6,0.2,2.2,0.7l-1.7,2c-0.5-0.4-1-0.6-1.5-0.6
					c-0.3,0-0.6,0.1-0.9,0.2c-0.3,0.1-0.5,0.4-0.7,0.6c-0.2,0.3-0.4,0.7-0.5,1.1c-0.1,0.5-0.2,1-0.3,1.7l-0.7,5.9h-2.7l1.4-11.6
					H24.1z"/>
				<path id="Shape_10_" class="st0" d="M31.7,8.8c0,0.8,0.3,1.5,0.9,2c0.6,0.5,1.4,0.8,2.3,0.8c1.3,0,2.2-0.4,2.9-1.3l2,1
					c-0.7,0.9-1.4,1.5-2.2,1.8c-0.8,0.3-1.7,0.5-2.8,0.5c-1.8,0-3.2-0.5-4.3-1.5c-1.1-1-1.6-2.3-1.6-4c0-1.7,0.6-3.2,1.8-4.4
					c1.2-1.2,2.6-1.7,4.4-1.7c1.7,0,3.1,0.5,4.1,1.6c1,1.1,1.5,2.5,1.5,4.3c0,0.2,0,0.5,0,0.9H31.7L31.7,8.8z M38,6.8
					c-0.3-1.8-1.3-2.7-3-2.7c-1.6,0-2.6,0.9-3.1,2.7H38z"/>
				<path id="Shape_11_" class="st0" d="M-82,40.3l2.2-16.4h1.4l-0.2,1.7c0.5-0.7,1.1-1.2,1.7-1.6c0.6-0.3,1.3-0.5,2.1-0.5
					c1.3,0,2.4,0.5,3.3,1.5c0.9,1,1.3,2.4,1.3,4c0,1.8-0.5,3.3-1.5,4.5c-1,1.2-2.3,1.8-3.9,1.8c-0.9,0-1.7-0.2-2.3-0.7
					s-1.1-1.1-1.5-2l-1,7.6L-82,40.3L-82,40.3z M-75.2,24.8c-1.1,0-2.1,0.5-2.8,1.4c-0.7,1-1.1,2.2-1.1,3.7c0,1.3,0.3,2.3,0.9,3
					c0.6,0.8,1.4,1.2,2.4,1.2c1.1,0,2.1-0.5,2.9-1.5c0.8-1,1.1-2.2,1.1-3.7c0-1.3-0.3-2.3-0.9-3.1C-73.3,25.2-74.1,24.8-75.2,24.8z"
					/>
				<path id="Shape_12_" class="st0" d="M-57.1,23.9l-1.4,10.9H-60l0.2-1.6c-0.5,0.7-1,1.2-1.6,1.6c-0.6,0.4-1.4,0.5-2.2,0.5
					c-1.3,0-2.4-0.5-3.3-1.5c-0.9-1-1.3-2.4-1.3-4c0-1.8,0.5-3.3,1.5-4.5c1-1.2,2.3-1.8,3.9-1.8c0.9,0,1.7,0.2,2.3,0.6
					c0.6,0.4,1.1,1.1,1.5,2l0.3-2.2L-57.1,23.9L-57.1,23.9z M-63.2,34.1c1.1,0,2.1-0.5,2.8-1.5c0.8-1,1.1-2.2,1.1-3.7
					c0-1.3-0.3-2.3-0.9-3c-0.6-0.8-1.4-1.1-2.4-1.1c-1.1,0-2.1,0.5-2.9,1.4c-0.8,1-1.1,2.2-1.1,3.6c0,1.3,0.3,2.3,0.9,3.1
					C-65.1,33.7-64.2,34.1-63.2,34.1z"/>
				<path id="Shape_13_" class="st0" d="M-55.3,34.8l1.4-10.9h1.4l-0.3,1.8c0.5-0.7,1.1-1.3,1.6-1.7c0.6-0.4,1.1-0.6,1.7-0.6
					c0.2,0,0.5,0,0.7,0.1c0.2,0,0.4,0.1,0.6,0.2l-0.3,1.5c-0.3-0.1-0.6-0.2-0.8-0.2c-0.2,0-0.3-0.1-0.4-0.1c-1,0-1.7,0.4-2.3,1.1
					c-0.6,0.7-0.9,1.8-1.1,3.3l-0.7,5.5H-55.3z"/>
				<polygon id="Shape_14_" class="st0" points="-44.8,25.2 -46.7,25.2 -46.5,23.9 -44.7,23.9 -44.1,19.5 -42.6,19.5 -43.2,23.9 
					-41,23.9 -41.2,25.2 -43.4,25.2 -44.6,34.8 -46.1,34.8 				"/>
				<path id="Shape_15_" class="st0" d="M-40.2,34.8l1.4-10.9h1.4l-0.2,1.8c0.6-0.7,1.2-1.3,1.8-1.6c0.7-0.4,1.4-0.5,2.2-0.5
					c1,0,1.9,0.3,2.5,0.8c0.6,0.6,0.9,1.3,0.9,2.3c0,0.2,0,0.4,0,0.6c0,0.2,0,0.4-0.1,0.7l-0.9,6.9h-1.5l0.9-6.8
					c0-0.2,0-0.4,0.1-0.5c0-0.2,0-0.3,0-0.5c0-0.7-0.2-1.2-0.6-1.6c-0.4-0.4-1-0.5-1.9-0.5c-1.1,0-1.9,0.4-2.6,1.1
					c-0.6,0.8-1.1,1.9-1.3,3.4l-0.7,5.4L-40.2,34.8L-40.2,34.8L-40.2,34.8z"/>
				<path id="Shape_16_" class="st0" d="M-17,29.6h-9.1v0.3c0,1.3,0.3,2.3,1,3.1c0.7,0.7,1.6,1.1,2.8,1.1c0.7,0,1.4-0.2,2-0.5
					c0.6-0.3,1.1-0.9,1.6-1.5l1,1c-0.6,0.8-1.3,1.4-2,1.8c-0.8,0.4-1.6,0.6-2.6,0.6c-1.6,0-2.9-0.5-3.9-1.4c-1-1-1.5-2.2-1.5-3.8
					c0-1.9,0.6-3.5,1.7-4.7c1.1-1.2,2.5-1.8,4.3-1.8c1.5,0,2.7,0.4,3.6,1.3c0.8,0.9,1.3,2.1,1.3,3.7c0,0.1,0,0.3,0,0.5
					C-17,29.2-17,29.4-17,29.6z M-18.4,28.4c0-1.1-0.3-2-0.8-2.6c-0.6-0.6-1.4-0.9-2.4-0.9c-1.1,0-2.1,0.3-2.8,0.9
					c-0.7,0.6-1.3,1.5-1.6,2.7H-18.4L-18.4,28.4z"/>
				<path id="Shape_17_" class="st0" d="M-14.8,34.8l1.4-10.9h1.4l-0.3,1.8c0.5-0.7,1.1-1.3,1.6-1.7c0.6-0.4,1.1-0.6,1.7-0.6
					c0.2,0,0.5,0,0.7,0.1c0.2,0,0.4,0.1,0.6,0.2L-8,25.2C-8.3,25.1-8.6,25-8.8,25c-0.2,0-0.3-0.1-0.4-0.1c-1,0-1.7,0.4-2.3,1.1
					c-0.6,0.7-0.9,1.8-1.1,3.3l-0.7,5.5H-14.8z"/>
				<path id="Shape_18_" class="st0" d="M-7.1,32.3c0.5,0.6,1,1.1,1.6,1.4s1.2,0.4,1.9,0.4c0.7,0,1.3-0.2,1.8-0.6
					c0.5-0.4,0.7-0.9,0.7-1.4c0-0.5-0.1-0.8-0.4-1.1c-0.3-0.3-0.9-0.6-1.8-1c-1.3-0.5-2.1-1-2.5-1.4c-0.4-0.4-0.6-1-0.6-1.7
					c0-1,0.3-1.8,1-2.4c0.7-0.6,1.6-0.9,2.7-0.9c0.6,0,1.2,0.1,1.8,0.4c0.6,0.3,1.2,0.7,1.7,1.2l-0.9,1c-0.4-0.5-0.9-0.8-1.4-1
					c-0.5-0.2-1-0.4-1.5-0.4c-0.6,0-1.1,0.2-1.5,0.6c-0.4,0.4-0.6,0.8-0.6,1.4c0,0.7,0.7,1.3,2,1.9c0.3,0.1,0.5,0.2,0.7,0.3
					c1,0.4,1.7,0.9,2.1,1.4c0.4,0.5,0.6,1.1,0.6,1.7c0,1-0.4,1.9-1.1,2.5c-0.7,0.6-1.7,0.9-2.9,0.9c-0.9,0-1.7-0.2-2.4-0.5
					c-0.7-0.3-1.3-0.9-1.9-1.6L-7.1,32.3z"/>
			</g>
			<g id="Group_1_">
				<path id="Shape_19_" class="st0" d="M22.5,15.1c-0.2-0.4-0.8-0.2-0.8-0.2s-4.5,1.5-7.5,2.4c2.6-7.2,7.2-19.5,7.2-19.7
					c0-0.3,0-0.5-0.3-0.5c-0.4,0-0.6,0.3-0.7,0.5C20-2,1.3,24.2,0.6,25.2c-0.5,0.8-0.6,1-0.4,1.4C0.4,27,1,26.8,1,26.8
					s4.5-1.5,7.5-2.4C5.9,31.5,1.4,43.8,1.4,44c0,0.3,0,0.5,0.3,0.5c0.4,0,0.6-0.3,0.7-0.5c0.3-0.3,19-26.5,19.7-27.4
					C22.6,15.8,22.6,15.5,22.5,15.1z"/>
				<path id="Shape_20_" class="st0" d="M29.9,13.1c0,0-4.2,1.3-4.9,1.6c-0.7,0.3-1.1,1-1.1,1L17.1,25c-1.3,1.8,3.6-2.2,3.6-2.2
					s10.2-8.8,10.3-9.3C31,12.8,29.9,13.1,29.9,13.1z"/>
			</g>
		</g>
	</g>
</g>
</svg>
