<?xml version="1.0" encoding="utf-8"?>
<!-- Generator: Adobe Illustrator 22.0.0, SVG Export Plug-In . SVG Version: 6.00 Build 0)  -->
<svg version="1.1" id="图层_1" xmlns="http://www.w3.org/2000/svg" xmlns:xlink="http://www.w3.org/1999/xlink" x="0px" y="0px"
	 viewBox="0 0 3933.2 1943.1" style="enable-background:new 0 0 3933.2 1943.1;" xml:space="preserve">
<style type="text/css">
	.st0{fill:#FFFFFF;}
	.st1{font-family:'ArialMT';}
	.st2{font-size:48.2581px;}
	.st3{letter-spacing:11;}
	.st4{letter-spacing:12;}
	.st5{fill:#ED4723;}
</style>
<title>logo</title>
<g id="Layer0_0_FILL">
	<path class="st0" d="M2346.9,795.4c3.1,21-2.9,36.4-18,46.3c-20.1,14.1-36.3,25.9-48.6,35.4c-17.9,14.2-32.7,31.9-43.4,52.1
		c-22.1,43.8-22.7,87.8-1.9,132.2c20.8,44.3,55.5,72,104.2,83c40.6,8.3,79.3,0.7,116-22.8c48.6-34.4,70.1-81.6,64.6-141.6
		c-3.5-50-36.3-94.3-98.3-132.7C2395,830.4,2370.2,813.2,2346.9,795.4 M2356.5,868.9c2.8-14.5,16.9-24,31.4-21.1
		c3.2,0.6,6.3,1.8,9.1,3.6c8.8,4.9,15.7,12.7,19.5,22c4.3,9.1,5.2,19.4,2.7,29.1c-0.2,0.7-0.6,2.1-1.2,4.2c-0.6,2.1-1.9,5.8-4,11
		c-2.2,5.5-3.9,11.2-5.2,17.1c-1.3,6.8-0.1,13.9,3.2,20c3.7,7.9,6.5,16.2,8.3,24.7c2.1,11.1,2.3,22.5,0.4,33.6
		c-0.4-13-3.6-25.8-9.4-37.4c-5.4-10.5-9-17.3-10.3-20.5c-1.4-3.1-2.4-6.4-3-9.8c-0.6-4.2-0.6-8.4-0.1-12.6
		c0.3-4.4,1.1-8.8,2.3-13.1c0.9-3.3,2-6.6,3.3-9.8c1.1-2.7,2.2-6.5,3.5-11.1c1.3-5.5,0.6-11.3-1.8-16.4c-2.3-6.1-6.7-11.2-12.4-14.4
		c-8.3-5.1-19.2-2.5-24.3,5.8c-1.1,1.7-1.8,3.6-2.2,5.6c-0.4,1.4-0.6,2.9-0.7,4.4c-0.1,1.6-0.2,3.2-0.1,4.9
		c-0.1,2.7,0.1,5.4,0.6,8.1c0.8,4.7,2.3,9.4,4.3,13.7c0.7,2.7-0.5,2.4-3.6-1.1c-3.1-3.3-5.6-7.1-7.4-11.2
		c-4.2-9.2-5.2-19.5-2.7-29.3 M2381.4,876.1c2.7-1.2,5.8-1,8.4,0.4c6.1,3.6,9.2,10.7,7.6,17.6c-0.6,2.9-2.6,5.4-5.4,6.6
		c-2.7,1.1-5.9,0.9-8.4-0.7c-3-1.7-5.4-4.4-6.7-7.6c-1.4-3.1-1.8-6.6-0.9-10C2376.7,879.6,2378.7,877.2,2381.4,876.1 M2316.8,958.8
		c-7.9-9.8-16.2-16-24.9-18.6c-8.7-2.6-19.9-2-33.3,1.9c6.8-15.9,17-30,30.1-41.4c18.5-4.4,35.6,5.7,51.3,30.5
		c5.9,12.8,16.2,23,29.1,28.9c11.5,4.8,21.7,12.5,29.4,22.3c7.5,10.5,12.6,22.4,15.1,35.1c-6.3-9.2-13.6-17.6-21.8-25.2
		c-7.2-6.6-19.5-11.3-37-14.3c-17.5-3-30.1-9.4-37.8-19.2 M2298.4,981.9c12.6,7,24.4,9.8,35.5,8.5c17.7-3.4,35.9,0.5,50.8,10.6
		c11.3,7.5,21.5,16.6,30.3,27c4.2,4,8.4,4,12.6,0c16.8-17.1,33.9-27.7,51.3-31.7c2-0.5,3.9-0.8,5.7-1.1c1.9-0.2,3.8-0.2,5.7-0.1
		c3.5-0.8,6.7-2.5,9.2-5.1c4.8-4.8,11.6-7.3,18.4-6.8c-5.2,6.5-8.1,14.5-8.1,22.9c-0.2,3-0.2,5.4-0.2,7.5c0.1,2.1,0.7,3.7,0.9,5.7
		c0.5,6.3,0.2,12.7-1.1,18.9c-5.2,16.2-13.3,27.9-24.3,35.1c-6,4.1-13.3,5.9-20.6,5.2c-8.8-1-18.4-8.4-28.9-22.2l-9.8-12.8
		c-3.2-4.4-7-4.7-11.5-0.9c-11.4,10.1-23.7,19.1-36.8,27c-13.1,8.3-28.5,12-43.9,10.5c-13.1-1.4-25-8.3-32.7-19.1
		c-4.8-7.2-7.4-15.6-7.8-24.3v-0.8c-1.5-13.8-6.4-27.1-14.1-38.7c-5.1-7.2-13.6-14.2-25.3-21.1c17-3.3,31.7-1.3,44.4,5.7
		 M2481.2,941.1c-3.3,2.7-7.1,8.9-11.5,18.2c-4.4,9.3-10.3,15.5-17.7,18.5c-6.9,2.6-12.4,7.7-15.6,14.3c-3.6,8.2-6.7,16.6-9.1,25.2
		c0.9-11.9,3-23.6,6.3-35.1c2.4-8.3,6.6-15.9,12.4-22.3c5.4-5.6,9.3-15.3,12.2-28.9c3.6-13.6,10.1-22.1,19.6-25.5
		c8.2,5.8,15.6,16.5,22.2,32C2490.7,937.1,2484.5,938.3,2481.2,941.1 M2429,1076c1.1,1.5,1.8,3.2,2.3,4.9c0.5,3.3-0.2,5.2-1.9,5.7
		c-1.8,0.5-3.7-0.1-4.9-1.5c-1.1-1.1-2.4-1.8-3.9-2.1c-1.4-0.4-2.9-0.6-4.4-0.6c-4.2-0.2-8.3,0.8-12.1,2.7c-4,2-6.9,2.7-8.6,2
		c-1.7-0.6-1.8-2.1-0.3-4.7c2.7-3.6,6.2-6.4,10.4-8.1c4.8-2.6,10.3-3.7,15.7-3c3.1,0.4,5.9,2,7.7,4.5 M2433.1,1093.8h1.1
		c1.6,0.1,3.2-0.2,4.7-0.8c3.4-1.1,5.2-3.1,5.3-5.9c0.2-1.3,0-2.6-0.5-3.8c0-0.3,0-0.5,0-0.8c-0.5-2.5,1.1-4.8,3.6-5.3
		c0.3-0.1,0.5-0.1,0.8-0.1c4.3-0.6,8.6,1.1,11.3,4.6c3.2,3.5,4.8,9.1,4.9,17c-0.1,7.2-3.5,14.1-9.2,18.5
		c-5.1,4.7-11.1,8.4-17.6,10.8c7.6-7.4,11.1-13.5,10.8-18.4c-0.4-4.9-1.7-7.7-3.7-8.1c0.7,0.4,0.8,1.4,0.1,3
		c-0.6,1.6-2.9,3.7-7.1,6.7c-4.2,2.9-12.6,5.4-25.5,7.7c-20.9,2.4-36.9,0.1-48.1-7.1c-4.1-2.5-6-5.1-5.7-7.8c0.1-0.7,0.4-1.4,1-1.9
		c-2,0.7-3.5,2.2-4.4,4.1c-1.2,2.7-2,5.6-2.2,8.6c-0.3,3.5,0.2,7.1,1.7,10.3c1.1,2.6,2.7,4.9,4.6,6.9c2.3,2.4,5,4.4,7.9,5.9
		c2.2,1.3,4.5,2.5,6.8,3.6c1.2,0.6,2.5,1.2,3.8,1.8c-12.8-1.4-25.1-5.8-35.8-13c-9.4-7.2-11.2-16.5-5.4-27.9
		c4.7-7.6,11-14,18.5-18.9c6.3-4.4,13.9-6.4,21.6-5.9c6.6,1.2,8.3,3.9,5.4,8.1c-2.2,3-3,5.2-2.5,6.3c0.9,1.9,5,2.8,12.2,2.7
		l10.7-0.7h30.9 M2375.2,1049.3c1.7,2.2,2.2,0.6,1.6-4.6c-1.2-12.6-6.6-20.5-16.2-23.8c-9.6-3.3-17.7-3.3-24.3-0.1
		c-6.6,3.2-10.6,6.5-12.1,10.1c-1.5,3.5-0.9,4.7,1.9,3.3c21.1-8.3,37.4-3.3,48.9,15.1 M2491,1036c-1-2.7-4-5-8.8-7.4
		c-4.9-2.4-10.8-2.3-17.8,0c-7,2.3-11,8.1-11.8,17.4c-0.4,3.9,0,5,1.2,3.4c8.5-13.5,20.5-17.3,36-11.1c2.2,1,2.6,0.2,1.4-2.4
		L2491,1036z"/>
</g>
<g id="Layer0_1_FILL">
	<path class="st0" d="M3794.2,996.1c2.7-0.9,5.1-2.5,7-4.6c2.4-3,3.9-6.6,4.3-10.4c-0.9-9.4-7.1-15.8-18.6-19
		c-9.4-2.6-19.1-3.7-28.8-3.3c-8.7,0.6-17.3,2.8-25.3,6.4c-3.6,1.6-6.7,4.2-8.9,7.4c-2.3,3-3.7,6.5-4,10.3
		c-0.6,6.2,2.5,10.8,9.4,13.9c-4.4,0.4-8.7,1.2-12.9,2.2c-7.8,2.1-15,6.1-21,11.6c-4.7,4.2-7.5,10.2-7.6,16.5
		c0.1,5.2,2.4,10.1,6.3,13.5c4.9,4,10.7,6.7,17,7.7c5.8,0.8,13.1,1.4,21.7,1.8l31,0.8c9.2,0,18.4-0.4,27.6-1.3
		c6.8-0.3,13.6-1.3,20.2-3c5.4-1.2,10.4-3.7,14.6-7.3c3.6-3.9,5.8-8.9,6.3-14.1c0.1-7.9-4-15.3-10.8-19.4
		C3815.1,1001.4,3806,998.2,3794.2,996.1 M3777.4,976.8c5,4.1,4.8,8.2-0.5,12.5c-4.1,3.4-8,7.1-11.6,11l-0.9,1.8v1
		c0.3,0.7,0.6,1.4,0.9,2.1c3.6,4,7.5,7.7,11.6,11.2c5.3,4.2,5.4,8.2,0.5,12.2c-4.8,4.1-11.1,5.4-18.9,4c-8.3-1.5-12.9-4.2-13.7-8.1
		c-0.1-4.4,2.4-8.5,7.4-12.5c4.2-3.5,6.4-6.4,6.9-8.8v-1c-0.4-2.1-2.7-4.9-6.9-8.4c-5-4.4-7.5-8.6-7.5-12.8
		c0.8-4.1,5.4-6.7,13.7-8.1c7.8-1.5,14.1-0.2,18.9,3.7 M3838.5,974c0.9-4.6,0.9-9.4,0-14c-1.9-6.3-6-11.6-11.6-15.1
		c-7.7-4.1-16.2-6.6-24.9-7.6c-26-2.4-52.2-2.4-78.2,0c-8.8,0.2-17.5,2.1-25.6,5.6c-6.3,2.7-11.4,7.5-14.6,13.5
		c-2.5,4.5-3.9,9.5-4,14.6c-0.2,3.8,1.5,7.5,4.5,10c3.7,2,7.9,2.7,12.1,2.1c4.5-1.1,8.7-3.5,12.1-6.7c3.2-3.8,6.8-7.4,10.6-10.6
		c3.5-2.9,7.3-5.3,11.3-7.3c3.3-2,7.1-3.2,11-3.4c6.3-1.1,12.8-1.6,19.2-1.5c8.1-0.4,16.2,0.1,24.1,1.5c5.7,0.8,11.1,3.1,15.6,6.7
		c2.8,2,5.2,4.4,7.1,7.1c2.7,3.2,4.9,6.9,6.4,10.8c1.8,3.1,4.7,5.5,8.1,6.6c3.8,0.9,7.8,0.6,11.5-0.8
		C3835.7,982.1,3837.5,978.2,3838.5,974 M3081.3,1018.1c7.8-7.4,11.8-17.8,12.2-31.3c-1-11.3-6.9-21.5-16.2-28
		c-9-6.5-21.9-10.1-38.9-10.8c-3.8,0.1-7.6,0.8-11.2,1.9c-4.1,1.3-8.2,2.9-12.1,4.8c0.6-4.1-0.3-8.2-2.7-11.6
		c-2.6-2.7-6.4-4-10.1-3.4l-12.9,3.4c-3.3,1.4-6.7,2.2-10.3,2.4c-2.2,0.6-4.5,0.1-6.3-1.3c-1.8,2.1-2.5,4.9-1.8,7.6l3.4,8.3
		c1.7,3.7,2.8,7.6,3.3,11.6l-0.9,38c-0.6,11.4-1.4,22-2.4,31.9l-0.9,7.6c-2.7,7.6-2.1,13.2,1.5,16.5c3.6,3.4,10.8,4.4,20.4,3.4
		c7.4,0,12.4-2.5,14.9-7.4c2.5-5,2.8-12.8,0.9-23.4c-0.6-3.2-0.3-6.6,0.8-9.7v-0.6l1.9-2.1c4.5,1.5,9.1,2.6,13.9,3.1
		c6.6,1,13.3,1.6,19.9,1.8C3062.7,1029.6,3073.9,1025.4,3081.3,1018.1 M3054.5,977c7.2,9.6,8.6,16.7,4.2,21.1
		c-4.4,4.5-11,7.8-19.6,10.1c-8.7,1.8-15.3-2.2-19.7-11.9c-4.3-10.1-2-18.2,6.7-24.3c9.1-6.4,17.2-6.1,24.3,1.1
		c1.3,1.2,2.7,2.5,4,3.9 M3179.6,1037.5c19.7-0.6,30.6-1.2,32.9-1.8c-2.4-2-4.4-4.4-5.8-7.1c-1.7-2.7-2.6-5.8-2.5-8.9
		c0.4-5.9,1.9-11.6,4.5-17c1.9-5.5,3.1-11.2,3.4-17c0.3-21.2-10.1-34.3-31.1-39.3c-9.2-2.1-18.5-3.5-27.8-4.2
		c-15.4,1.9-27.1,4.8-35.1,8.7c-8,3.9-12.5,9-13.5,15.5c-0.2,2.8,0.5,5.6,1.9,8.1c1.4,2,3.8,3.1,6.3,3c6.2-0.5,12.2-1.9,17.9-4.3
		c6.2-2.3,12.6-3.7,19.2-4c12.2,1.4,19.7,4.2,22.6,8.3l-0.9,1.3c-8.5-1.8-17.2-2.2-25.8-1.3c-8,0.9-15.9,2.9-23.4,5.9
		c-5.9,2.5-11.1,6.5-15,11.6c-3.3,4.5-5,10-4.9,15.6c0.1,7,3.2,13.6,8.5,18.2c5.6,4.2,13.5,6.6,23.7,7.3c5.2-0.2,10.3-1.1,15.2-2.7
		c4.9-1.2,10-1.9,15-2.1h0.5c3.7,4.1,8.9,6.4,14.4,6.3 M3148.8,991.8c6.9-1.2,12.1,1.7,15.6,8.8c3.6,7,2.2,12.6-4,16.5
		c-6.4,4.2-12,4.8-16.5,1.9c-3.6-2.1-6.9-4.5-10.1-7.1c-3.6-5.6-3.7-10.2-0.5-13.5C3137.7,994.7,3143.1,992.4,3148.8,991.8
		 M3245.5,904.6c-4.6,1.7-9.4,2.8-14.3,3.3c-3.6,0.2-5.7-0.4-6.3-1.8c-1.9,0.9-3.1,3.6-3.6,8.1c-0.1,3.4,1.4,6.7,4,8.9
		c1.7,1.3,2.8,3.3,3,5.4v78.6c-1.1,10.3,0,17.9,3.3,22.8c3.3,4.9,8.6,7.6,15.9,7.6c5,0.2,10-0.3,14.9-1.3c3.2-0.9,4.8-2.3,4.8-4.2
		c-0.2-2.2-1-4.2-2.1-6.1c-0.9-2.7-1.3-10.5-1.3-23.2v-6.3c-0.3-4.1-0.3-8.2,0-12.2l1.3-20.9c1.2-12.8,2.2-26.8,3-42.1
		c0.1-4.9-1.5-9.7-4.3-13.7c-2.6-3.2-6.6-5-10.8-4.9L3245.5,904.6 M3409.8,891.8c-6.2-0.4-12.3,0.8-17.9,3.6
		c-5.6,3.1-10.4,7.4-14.1,12.7c-1.8,3.6-4.5,6.6-7.7,8.9c-3.6,2.5-7.6,4.2-11.9,4.9c-6.9,1.1-13.4,4.2-18.7,8.8
		c-5.1,5.1-8.8,11.5-10.8,18.5l-2.4,11.9l-0.9,13.5c-0.1,5.8,0.6,11.6,1.9,17.3c1.1,5.1,3.1,9.9,5.8,14.3c2.1,3.6,4.9,6.7,8.3,9.1
		c3.8,2.5,8.1,4,12.7,4.5c4.8,0.1,9.6,1.4,13.7,3.9c3.2,2.4,5.4,5.9,6.3,9.8c2.6,6.6,7.4,12.2,13.5,15.8c6.9,3.7,14.8,5.4,22.6,4.9
		c7.1,0.3,14.1-1.4,20.3-4.9c5.7-3.3,10.2-8.3,12.8-14.3c1.5-3.6,3.8-6.9,6.9-9.4c4-3,8.3-5.4,12.9-7.1c5.6-1.8,10.8-4.7,15.2-8.6
		c4-3.8,7.1-8.6,8.9-13.8c2.2-7.9,3.4-16,3.4-24.1c0.1-7.6-0.9-15.3-3-22.6c-1.9-5.9-5.1-11.3-9.4-15.8c-4.6-4.6-10.1-8-16.2-10.1
		c-4.5-1.7-8.7-4-12.7-6.7c-3.6-2.5-7-5.5-9.8-8.9c-3.3-5-7.8-9.1-12.9-12.1c-5.3-2.6-11.1-3.8-17-3.7 M3353.2,955
		c8.3-6,16.9-5.9,25.8,0.2c7.2,5.3,14.9,10,22.9,14c1.2,0.7,2.6,1,4,1h3.3c1.1-0.2,2.2-0.5,3.3-1c7.9-4.1,15.6-8.7,22.8-14
		c9-6.1,17.5-6.1,25.6-0.2c7.9,4.6,11.3,14.2,8.3,22.8c-3,9.9-8.6,15.3-16.8,16.2c-9.5,0.1-18.8-2.9-26.4-8.6
		c-5.1-3.7-10.8-6.5-16.8-8.1c-0.3-0.2-0.7-0.3-1-0.3c-0.4,0-0.7-0.1-1.1-0.3c-0.4,0.2-0.8,0.3-1.2,0.3c-4.6,0.6-10.4,3.4-17.6,8.3
		c-7.6,5.7-16.9,8.7-26.4,8.6c-8.3-0.8-13.9-6.2-16.8-16.2C3341.9,969.2,3345.3,959.6,3353.2,955 M3752.9,900.8l-9.8-4.5
		c-11.9-5.4-22.2-4.7-30.8,2.1c-3.7,3-8.2,4.7-12.9,4.9c-5.1-0.2-10.1,1.1-14.5,3.6c-3.4,2-5.7,5.5-6.1,9.4c0.4,3.4,2.3,6.4,5.2,8.1
		c4.2,2,8.8,3,13.5,2.7c2.7-0.3,5.4-0.1,8.1,0.4c4.2,0.7,8.3,1.7,12.4,3c3.7,1.3,7.7,2,11.6,1.8c4.9-0.3,9.8-1.4,14.5-3.1
		c8-3.6,13.5-5.2,16.4-4.8c4.8,0,9.5,1.4,13.5,4c4.6,2.2,9.5,3.6,14.6,4c5.5-0.1,10.9-0.9,16.2-2.4c4.8-1.9,10-2.9,15.2-3
		c4.5,0.5,9.1-0.2,13.2-1.9c3-1.3,5.1-4.2,5.4-7.4c0.5-3.2-0.6-6.4-3-8.6c-3.4-2.3-7.5-3.3-11.6-3c-2.7-0.1-5.3-0.7-7.7-1.8
		c-3.3-1.7-6.4-3.9-9.2-6.4c-4.1-2.8-9-4.3-14-4.3c-5.4-0.2-10.8,1-15.6,3.4c-2.9,1.9-6,3.4-9.2,4.6c-2.2,1-4.7,1.3-7.1,0.9
		c-2.8-0.1-5.5-0.7-8.1-1.8 M3627.5,901.4c-11.8-4.7-26.9-6.9-45.4-6.6c-22.2-0.3-39.4,3.7-51.8,11.9c-12.4,8.2-20,20.9-22.9,38.1
		c-5,28.8-3.6,53.3,4.2,73.7c4.5,11.9,13.7,21.4,25.5,26.2c12.4,5.8,28.8,8.4,49.1,7.7c20.8-0.4,37.1-4.4,49-12.1
		c12-7,20.4-18.9,22.9-32.6c3.9-15.5,5.4-31.4,4.5-47.3c-0.5-13.3-3.5-26.3-9.1-38.4C3647.5,912.4,3638.3,905,3627.5,901.4
		 M3620.5,931.1c8.6,8.5,13.1,20.9,13.5,37.1c0.8,13.3-1.5,23.7-6.7,31.1c-5.3,7.4-13.4,12.1-24.5,14c-8.4,1.7-16.9,2.3-25.5,1.8
		c-7.8-0.5-15.5-2.2-22.8-5c-11.3-5.6-18.1-13.6-20.3-24c-2.3-10.8,0-24,6.9-39.8c3.2-9.2,8.9-17.2,16.5-23.2
		c7.2-4.8,15.9-7,24.6-6.3C3599.1,917.7,3611.9,922.4,3620.5,931.1 M3617,979.3c0-1.4-0.6-2.8-1.7-3.7c-1.8-0.9-3.8-1.3-5.8-1.2
		c-2.3-0.2-4.7,0.2-6.9,1.2c-1.6,0.6-2.6,2.1-2.7,3.7c0.6,2.3,3.6,3.4,9.1,3.4c4.8,0,7.4-1.1,8.1-3.4 M3613,934.7
		c-0.8-1.9-2.2-3.5-3.9-4.6c-3.1-2.4-6.6-4.2-10.3-5.4c-4.5-1.2-9.2-1.7-13.9-1.6c-5.1-0.1-10.2,0.4-15.2,1.3c-3.2,0.6-6.3,2-8.9,4
		c-3.1,2.7-4.3,5.2-3.7,7.5c0.6,2.3,3.6,4.4,8.6,5.8c2.3,0.3,3.4,1.1,3.4,2.4c0.5,1.6-0.3,3.3-1.8,3.8c-0.1,0-0.2,0.1-0.2,0.1
		c-5,0.9-9.7,2.9-13.9,5.8c-2.6,1.9-4.1,4.9-4,8.1c-0.6,2.2,0.3,4.5,2.1,5.8c2.4,1.8,5.2,3.1,8.1,3.9c5.6,1.9,8.1,4,7.6,6.3
		c0.1,1.8-1,3.5-2.7,4.2c-2.8,1.3-5.8,2-8.9,2.1c-2,0-4,0.9-5.4,2.4c-1.2,1.9-2,4-2.2,6.3c1.1,5,4.8,8.8,11.2,11.5
		c8.8,2.9,18,4.4,27.2,4.5c5.7,0.2,11.3-0.4,16.8-1.6c4.3-1.1,8.3-3.1,11.8-6c3.2-3.6,4-6.6,2.5-9.2c-1.5-2.6-5-4.4-10.8-5.8
		c-3.1-0.1-6.1-0.8-8.9-1.9c-2.1-0.9-3.1-2-3.1-3.4c-0.1-1.8,0.4-3.6,1.3-5.1c1.4-1.2,3.1-2.1,4.9-2.5c6-1,11.9-2.8,17.4-5.4
		c3.6-2.2,4.8-4.5,3.7-6.9c0.3-3.4-1.5-6.6-4.6-8.1c-4.6-2.1-9.6-3.1-14.6-3c-2.4-0.6-3.6-1.5-3.6-2.7c-0.2-1.7,0.9-3.2,2.6-3.4
		c0,0,0.1,0,0.1,0c6-0.4,9.6-1.8,11-4c0.7-1.6,0.7-3.4,0-4.9 M2710.6,1022c16.4-10,24.5-25.2,24.3-45.6
		c-0.6-21.1-9.1-37.1-25.5-48.1c-16.7-10.8-41.3-16.4-74-17c-7.6,0.2-15.1-0.6-22.5-2.4c-5.3-1.5-8.5-3.7-9.7-6.6
		c-1.5,3.1-2.6,6.3-3.3,9.7c-0.8,3.3-1.1,6.6-0.9,10c0.6,4.8,2.2,9.4,4.6,13.5c2.2,3.2,5.5,5.5,9.2,6.6c-1.8,11-4.2,22-7.1,32.8
		c-2.1,7.9-3.8,16-4.9,24.1c-1.1,6.5-1.7,13.1-1.8,19.7c-0.1,2.9,0.7,5.7,2.2,8.1c1.8,2.5,4.4,4.4,7.3,5.4c3.7,1.7,7.6,2.7,11.6,3.1
		c5.5,0.9,11,1.2,16.5,0.9c33,0.3,57.5-4.4,73.7-14 M2661,929.8c5.6,4.5,11.5,8.6,17.6,12.4c14.5,9.3,22.2,19.8,23.1,31.4
		c1.8,13.1-4,26.1-15.1,33.5c-8,5.4-17.8,7.4-27.2,5.6c-10.9-2.3-20.1-9.7-24.7-19.9c-5-9.7-5-21.2,0-31c2.7-4.8,6.3-9.1,10.4-12.7
		l11.6-8.3C2660.5,938.5,2662.2,934,2661,929.8 M2819.1,951.4c-2.8,0-5.6,0.8-8.1,2.2l-25.3,14.3c1-6,0.6-12.1-1.3-17.9
		c-1.7-3.9-5.6-6.3-9.8-6.2c-4.9,0.3-9.8,1.5-14.3,3.4c-2.1,1.1-4.5,1.7-6.9,1.8c-2-0.3-3.6-1.6-4.3-3.4c-1.9,2.7-2.8,6-2.4,9.2
		c0.3,2.2,0.9,4.3,1.9,6.3c1,1.9,1.6,3.9,1.8,6l1.7,22.1c-0.3,6.6-1,13.2-2.1,19.7c-1.8,11.4-1.2,19.5,1.8,24.3
		c3,4.8,8.5,6.2,16.5,4.5c7.2,0.5,12.1-1,14.7-4.6c2.9-3.6,3.5-9.4,1.8-17.4c-1.5-8.5,1.3-16.5,8.3-24c7-7.4,18.5-14.2,34.1-20.3
		c2.4-1.4,3.6-2.5,3.6-3.4c-0.4-3.9-1.6-7.7-3.6-11.2c-1.9-2.8-4.8-4.7-8.1-5.4 M2881.5,963.4c0.3-3.4-0.9-6.7-3.3-9.1
		c-2.9-2.5-6.7-3.9-10.6-3.9c-3.1,0.4-6.2,1.4-8.9,3c-2.7,1.3-5.6,2.2-8.6,2.4c-2.1,0.5-4.3-0.3-5.7-1.9
		c-2.4,12.3-3.8,24.7-4.2,37.2c-0.6,14.9,2.3,25.8,8.6,32.6c6.6,7.2,16.8,10.4,30.7,9.7c11.1,0,25-0.7,41.5-2.1c1.2,2.9,3.2,5.4,6,7
		c3.2,1.7,6.7,2.6,10.3,2.7c11.9-0.4,19.5-3.1,22.8-8.1c-4.7-5.7-7.7-12.6-8.7-20c-1.1-9.6-0.7-19.3,1.3-28.7l2.4-12.9
		c1.7-6.5,2.7-13.2,3-20c-0.3-3.3-8.5-6-24.6-8.1l-1.6-0.9h-1.8c-4.1-0.5-8.3,0.4-11.8,2.7c-3,1.7-4.7,5-4.3,8.5
		c0.1,15.6,1.1,31.1,3,46.6c-2.5,2.3-5.5,3.9-8.8,4.8c-6.3,2-12.8,3.7-19.3,4.9c-3.1-0.4-6-2-7.9-4.5c-2.2-3-3.4-6.5-3.7-10.1
		c0.2-5.3,1-10.5,2.2-15.6c1.1-5.3,1.7-10.8,1.8-16.2L2881.5,963.4z"/>
</g>
<path class="st0" d="M570.3,875.8v61.8c5.3-5.4,11.5-9.7,18.4-12.7c6.7-2.8,13.8-4.3,21.1-4.2c15.8-0.2,31,6.5,41.5,18.4
	c11.4,12.3,17.1,28.1,17,47.3c0.5,17.2-5.8,33.9-17.6,46.5c-10.6,12-25.8,18.8-41.8,18.7c-6.9,0.1-13.7-1.2-20-3.8
	c-6.9-3-13.1-7.2-18.4-12.5v13.1h-31.3V875.8H570.3z M603.1,949.4c-9.2-0.3-18.1,3.4-24.4,10.1c-6.6,7.2-10.1,16.7-9.7,26.4
	c-0.4,9.9,3.1,19.6,9.7,27c6.3,6.8,15.2,10.5,24.4,10.3c9.2,0.2,17.9-3.6,24.1-10.4c6.6-7.3,10.1-16.8,9.8-26.7
	c0.4-9.7-3.1-19.2-9.6-26.4c-6.2-6.8-15-10.6-24.2-10.4V949.4z"/>
<path class="st0" d="M776.4,923.8h31.3v124.7h-31.3v-13.2c-5.3,5.2-11.6,9.5-18.4,12.5c-6.3,2.6-13.2,3.9-20,3.8
	c-16,0.1-31.2-6.8-41.8-18.7c-11.8-12.5-18.1-29.2-17.6-46.4c0-19.2,5.7-35,17.1-47.3c10.5-11.9,25.7-18.6,41.5-18.4
	c7.2-0.1,14.4,1.4,21.1,4.2c6.8,3,13,7.2,18.2,12.5L776.4,923.8z M743.5,949.3c-9.1-0.2-17.9,3.5-24.1,10.3
	c-6.5,7.2-10,16.7-9.6,26.4c-0.4,9.8,3.2,19.4,9.8,26.7c6.1,6.8,14.9,10.6,24.1,10.4c9.2,0.2,18.1-3.5,24.4-10.3
	c6.7-7.4,10.1-17.1,9.7-27c0.4-9.7-3.1-19.3-9.7-26.4C761.7,952.7,752.8,949,743.5,949.3L743.5,949.3z"/>
<path class="st0" d="M827.1,923.8h27v15.8c2.5-5.7,6.4-10.5,11.5-14.1c4.7-3.2,10.2-4.9,15.8-4.8c4.4,0.1,8.7,1.2,12.7,3.2l-9.7,27
	c-2.8-1.6-5.8-2.5-9-2.7c-4.8,0-8.9,3-12.2,8.9c-3.3,6-5,17.6-5,35.1v6.1v50.2h-31.3L827.1,923.8z"/>
<path class="st0" d="M1017.2,949.7l-12.7,7.9c-11-14.6-26-21.8-45.1-21.8c-14.1-0.4-27.8,4.8-37.9,14.6
	c-9.8,9.2-15.3,22.1-15.1,35.5c0,9,2.4,17.8,6.9,25.6c4.5,7.9,11.1,14.3,19,18.6c8.3,4.5,17.7,6.8,27.2,6.6
	c17.6,0.3,34.3-7.8,45-21.8l12.7,8.4c-6,9-14.3,16.2-24,20.9c-10.7,5.1-22.5,7.6-34.4,7.4c-19.8,0-36.2-6.3-49.1-18.9
	c-12.7-11.8-19.8-28.4-19.5-45.7c-0.1-11.8,3.1-23.4,9.1-33.6c6-10.3,14.6-18.7,25.1-24.3c11-5.9,23.2-8.9,35.7-8.7
	c8.1,0,16.2,1.3,23.9,3.8c7,2.2,13.6,5.5,19.6,9.8C1009.1,938.4,1013.7,943.7,1017.2,949.7z"/>
<path class="st0" d="M1156.7,923.8v124.7h-16v-21.4c-6.1,7.7-13.9,14-22.6,18.4c-8.6,4.2-18,6.3-27.5,6.2
	c-17.1,0.2-33.5-6.7-45.2-19.2c-12.3-12.4-19.1-29.2-18.7-46.6c-0.2-17.2,6.6-33.8,18.9-45.9c11.8-12.4,28.3-19.4,45.5-19.1
	c9.7-0.2,19.2,1.9,27.9,6.2c8.7,4.7,16.2,11.4,21.8,19.6v-22.9L1156.7,923.8z M1092.3,936.2c-17.7-0.1-34.1,9.5-42.7,25
	c-9,15.6-9,34.7,0,50.3c4.2,7.7,10.5,14.2,18.1,18.7c7.4,4.4,15.8,6.7,24.4,6.7c8.7,0,17.3-2.3,24.9-6.6
	c7.6-4.2,13.9-10.4,18.1-17.9c4.3-7.8,6.5-16.6,6.3-25.5c0.4-13.5-4.8-26.5-14.2-36.1C1118.2,941.2,1105.5,935.9,1092.3,936.2z"/>
<path class="st0" d="M1182.5,923.8h16v21.6c4.5-6.9,10.4-12.8,17.2-17.4c7.7-4.7,16.6-7.2,25.6-7.2c5.9,0,11.8,1.2,17.2,3.6
	c5.1,2.1,9.6,5.4,13.3,9.5c4,5,7.1,10.8,9,16.9c4.6-9,11.5-16.7,20-22.3c7.7-5,16.7-7.6,25.9-7.6c8.1-0.1,16.1,2.1,22.9,6.5
	c6.6,4.4,11.8,10.8,14.7,18.2c3.2,7.8,4.8,19.5,4.8,35.1v67.9h-16.4v-67.9c0-13.4-1-22.5-2.9-27.5c-1.9-5-5.3-9.2-9.8-12.1
	c-4.9-3.1-10.7-4.7-16.5-4.6c-7.7,0-15.1,2.4-21.3,6.9c-6.4,4.6-11.4,10.9-14.1,18.3c-3,7.6-4.5,20.4-4.5,38.4v48.6h-16v-63.7
	c0-15-0.9-25.2-2.7-30.6c-1.8-5.3-5.2-9.8-9.8-12.9c-4.9-3.3-10.7-5-16.7-4.9c-7.5,0-14.7,2.4-20.8,6.7c-6.5,4.5-11.5,10.7-14.4,18
	c-3.1,7.6-4.6,19.1-4.6,34.7v52.7h-16L1182.5,923.8z"/>
<path class="st0" d="M1394.1,923.8h16v22.9c5.7-8.1,13.2-14.8,21.8-19.6c8.5-4.4,18-6.6,27.6-6.5c17.1-0.2,33.6,6.7,45.4,19.1
	c12.3,12.1,19.1,28.6,18.9,45.9c0.3,17.4-6.4,34.3-18.7,46.6c-18.8,19.5-48,24.7-72.5,13c-8.7-4.5-16.4-10.7-22.6-18.4v67.1h-16
	V923.8z M1458.4,936.2c-13.2-0.3-25.9,5-35.1,14.5c-9.4,9.6-14.6,22.6-14.2,36.1c-0.1,8.9,2,17.7,6.3,25.5
	c4.3,7.6,10.5,13.8,18.2,17.9c7.6,4.3,16.2,6.6,24.9,6.6c8.6,0,16.9-2.3,24.3-6.7c7.6-4.5,13.9-10.9,18.1-18.7
	c8.9-15.6,8.9-34.7,0-50.3c-8.6-15.5-24.9-25.1-42.6-25L1458.4,936.2z"/>
<text transform="matrix(1 0 0 1 1218.1733 900.4738)" class="st0 st1 st2 st3">S</text>
<text transform="matrix(1 0 0 1 1253.1597 900.4738)" class="st0 st1 st2 st3">H</text>
<text transform="matrix(1 0 0 1 1295.9419 900.4738)" class="st0 st1 st2 st3">A</text>
<text transform="matrix(1 0 0 1 1336.8354 900.4738)" class="st0 st1 st2 st3">N</text>
<text transform="matrix(1 0 0 1 1380.3745 900.4738)" class="st0 st1 st2 st3">G</text>
<text transform="matrix(1 0 0 1 1423.3716 900.4738)" class="st0 st1 st2 st3">H</text>
<text transform="matrix(1 0 0 1 1466.1538 900.4738)" class="st0 st1 st2 st3">A</text>
<text transform="matrix(1 0 0 1 1507.0474 900.4738)" class="st0 st1 st2 st4">I</text>
<path class="st0" d="M290.7,938.5c20.3-8.5,21.1-40.8,12.1-57.7c-12.1-22.6-42.7-18.9-63.3-12.9c5.7-16.4,16.2-38.9,35.1-42.1
	s37.3,8.5,53.7,16.1c14.6,6.7,40.3,15.2,50.9-3.2c3.2-7.8-6.3-14.2-14.7-19.5c-8.3-5.5-17.2-10.1-26.5-13.8
	c200.6-42.5,206.1,378.3-6.2,318.3c-15.3-4.5-30.1-10.4-44.3-17.7c19.8,1.6,41.2-0.5,57-13.3c13.5-11,20.8-34-1.6-39.3
	c-20.1-4.8-42,7.4-61.9,9.1c-25,2.1-46.3,2.7-60.5-17c11-1.4,19.5-4.3,23.8-7.4c7.5-5.4,14.7-13,15.4-22.6
	c1.3-18.5-12.9-35.7-28.8-43.6c-7.4-3.8-16-4.7-24.1-2.6c-10.2,3-13.2,11.8-20.3,18.6s-13.5,11.5-23.2,13.5
	c-11.2,2-22.1-3.4-30.8-10.1c-4.6-3.9-8.9-8-13-12.4c18.1,2.7,42.2,7.3,52.8-13.1c8.5-16.3-1.6-34.9,7.4-51.4
	c11.6-21.2,41-4.6,55.4,3.7C251.8,927.4,268.3,947.9,290.7,938.5z"/>
<path class="st5" d="M388.6,1027.1c23-33.4,23.3-77.5,0.7-111.2l0,0c-2.3-3.4-6.9-4.3-10.3-2c-3.4,2.3-4.3,6.9-2,10.3l0,0
	c19.2,28.6,18.9,66-0.6,94.4l0,0c-2.3,3.4-1.5,8,1.9,10.3c3.4,2.3,8,1.5,10.3-1.9V1027.1z"/>
<path class="st5" d="M417.2,1046.9c31.1-45.2,31.5-104.7,1-150.3l0,0c-2.3-3.4-6.9-4.4-10.3-2.1c-3.4,2.3-4.4,6.9-2.1,10.3
	c0,0,0,0.1,0.1,0.1l0,0c27.1,40.5,26.8,93.4-0.9,133.6l0,0c-2.3,3.4-1.5,8,1.9,10.3C410.3,1051.1,414.9,1050.2,417.2,1046.9
	L417.2,1046.9z"/>
<path class="st5" d="M433.4,886.4c34.7,51.8,34.2,119.5-1.1,170.8l0,0c-2.3,3.4-1.5,8,1.9,10.3c3.4,2.3,8,1.5,10.3-1.9l0,0
	c38.8-56.3,39.3-130.6,1.2-187.5l0,0c-2.3-3.4-6.9-4.4-10.3-2.1C432.1,878.3,431.1,882.9,433.4,886.4
	C433.4,886.4,433.4,886.4,433.4,886.4L433.4,886.4z"/>
<path class="st0" d="M1960.7,944.9h-75.2v-75.2c-1-10.4-10.2-18-20.5-17.1c-9,0.8-16.2,8-17.1,17.1v75.2h-75.2
	c-10.4,0-18.9,8.5-18.9,18.9l0,0c0,10.4,8.5,18.9,18.9,18.9h75.2v75.2c1,10.4,10.2,18,20.5,17.1c9-0.8,16.2-8,17.1-17.1v-75.3h75.2
	c10.4,0,18.9-8.5,18.9-18.9l0,0C1979.5,953.3,1971.1,944.9,1960.7,944.9z"/>
</svg>
