<svg id="barcamp_logo" data-name="barcamp logo" xmlns="http://www.w3.org/2000/svg" viewBox="0 0 913.39 211.79"><defs><style>.cls-1{fill:#355c30;}.cls-2,.cls-3{fill:#8acc13;}.cls-3{font-size:31.24px;font-family:CenturyGothic, Century Gothic;letter-spacing:0.24em;}.cls-4{letter-spacing:0.24em;}.cls-5{letter-spacing:0.25em;}.cls-6{letter-spacing:0.25em;}.cls-7{letter-spacing:0.25em;}.cls-8{fill:#fff;}</style></defs><title>logo</title><path class="cls-1" d="M335.07,91.71v40a38.12,38.12,0,0,1,11.86-8.15,34.42,34.42,0,0,1,13.64-2.71q15.78,0,26.83,11.92t11.05,30.6q0,18-11.42,30.11T360,205.58a33.74,33.74,0,0,1-13-2.47A39.32,39.32,0,0,1,335.07,195v8.54H314.82V91.71Zm21.24,47.63a21,21,0,0,0-15.83,6.54q-6.28,6.54-6.28,17.11,0,10.78,6.28,17.44a20.84,20.84,0,0,0,15.83,6.65,20.45,20.45,0,0,0,15.56-6.76q6.33-6.76,6.33-17.26T372,146A20.5,20.5,0,0,0,356.31,139.34Z" transform="translate(-43.31 -44.1)"/><path class="cls-1" d="M468.47,122.84h20.25v80.74H468.47V195a39.49,39.49,0,0,1-11.91,8.07,33.48,33.48,0,0,1-12.94,2.47q-15.66,0-27.09-12.11T405.1,163.36q0-18.68,11.06-30.6T443,120.84a34.47,34.47,0,0,1,13.65,2.71,37,37,0,0,1,11.8,8.13Zm-21.31,16.5a20.42,20.42,0,0,0-15.6,6.65q-6.21,6.66-6.21,17.07t6.32,17.26a20.47,20.47,0,0,0,15.57,6.76,20.82,20.82,0,0,0,15.82-6.65q6.29-6.66,6.29-17.44,0-10.56-6.29-17.11A21.11,21.11,0,0,0,447.16,139.34Z" transform="translate(-43.31 -44.1)"/><path class="cls-1" d="M501.29,122.84h17.5v10.22a21.56,21.56,0,0,1,7.47-9.11,17.92,17.92,0,0,1,10.2-3.11,18.74,18.74,0,0,1,8.2,2.08l-6.28,17.44a13.87,13.87,0,0,0-5.83-1.77q-4.66,0-7.87,5.78t-3.22,22.68l.08,3.92v32.61H501.29Z" transform="translate(-43.31 -44.1)"/><path class="cls-2" d="M624.31,139.59l-8.24,5.12q-10.7-14.13-29.19-14.12-14.79,0-24.55,9.46a30.84,30.84,0,0,0-9.77,23,32.61,32.61,0,0,0,4.49,16.57,31.53,31.53,0,0,0,12.33,12A36,36,0,0,0,587,196q17.84,0,29.12-14.13l8.24,5.42a39,39,0,0,1-15.57,13.53,49.8,49.8,0,0,1-22.25,4.8q-19.17,0-31.8-12.14a39.48,39.48,0,0,1-12.63-29.56A42.11,42.11,0,0,1,548,142.13a41.5,41.5,0,0,1,16.23-15.66,47.4,47.4,0,0,1,23.11-5.63,49.74,49.74,0,0,1,15.49,2.43,43.31,43.31,0,0,1,12.67,6.35A34.73,34.73,0,0,1,624.31,139.59Z" transform="translate(-43.31 -44.1)"/><path class="cls-2" d="M714.6,122.84v80.74H704.23V189.71a44.09,44.09,0,0,1-14.65,11.91,39.91,39.91,0,0,1-17.75,4,39.39,39.39,0,0,1-29.24-12.4A41.6,41.6,0,0,1,630.48,163a40.83,40.83,0,0,1,12.22-29.78,39.9,39.9,0,0,1,29.43-12.37,38.21,38.21,0,0,1,18,4.19,40.51,40.51,0,0,1,14.13,12.65V122.84Zm-41.65,8A31.28,31.28,0,0,0,645.31,147a32.62,32.62,0,0,0,0,32.53,31.78,31.78,0,0,0,11.73,12.09A30.73,30.73,0,0,0,672.88,196,32.39,32.39,0,0,0,689,191.67a30,30,0,0,0,11.73-11.6,33.1,33.1,0,0,0,4.11-16.49q0-14-9.21-23.36A30.59,30.59,0,0,0,673,130.84Z" transform="translate(-43.31 -44.1)"/><path class="cls-2" d="M731.32,122.84H741.7v13.95q5.43-7.72,11.16-11.28a32,32,0,0,1,16.59-4.67,27.52,27.52,0,0,1,11.15,2.3,23.91,23.91,0,0,1,8.63,6.12,32.77,32.77,0,0,1,5.8,11,38.34,38.34,0,0,1,13-14.44,30.71,30.71,0,0,1,16.76-4.93,26.34,26.34,0,0,1,14.79,4.22,25.22,25.22,0,0,1,9.52,11.79q3.12,7.58,3.12,22.69v44H841.57v-44q0-13-1.85-17.82a16,16,0,0,0-6.33-7.81,19,19,0,0,0-10.71-3,23.31,23.31,0,0,0-13.82,4.45,25.58,25.58,0,0,0-9.15,11.86q-2.88,7.41-2.89,24.74v31.57H786.45V162.31q0-14.61-1.82-19.83a16.67,16.67,0,0,0-6.36-8.37A18.4,18.4,0,0,0,767.49,131,23.33,23.33,0,0,0,754,135.3,25.68,25.68,0,0,0,744.71,147q-3,7.34-3,22.45v34.16H731.32Z" transform="translate(-43.31 -44.1)"/><path class="cls-2" d="M868.3,122.84h10.38v14.84A41.18,41.18,0,0,1,892.83,125a37.78,37.78,0,0,1,17.85-4.19,39.84,39.84,0,0,1,29.4,12.37A40.83,40.83,0,0,1,952.3,163a41.6,41.6,0,0,1-12.11,30.19,40.81,40.81,0,0,1-46.92,8.4,44.72,44.72,0,0,1-14.59-12v43.45H868.3Zm41.59,8a30.48,30.48,0,0,0-22.64,9.38q-9.19,9.39-9.2,23.36a33.2,33.2,0,0,0,4.1,16.49,29.93,29.93,0,0,0,11.75,11.6A32.51,32.51,0,0,0,910,196a30.49,30.49,0,0,0,15.7-4.32,31.71,31.71,0,0,0,11.7-12.09,32.65,32.65,0,0,0,0-32.53,31.22,31.22,0,0,0-27.59-16.18Z" transform="translate(-43.31 -44.1)"/><text class="cls-3" transform="translate(690.15 63.6)">SH<tspan class="cls-4" x="52.1" y="0">A</tspan><tspan class="cls-5" x="82.8" y="0">NG</tspan><tspan x="148.56" y="0">H</tspan><tspan class="cls-6" x="177.5" y="0">A</tspan><tspan class="cls-7" x="208.36" y="0">I</tspan></text><path class="cls-2" d="M154.05,132.35c13.17-5.49,13.69-26.42,7.84-37.34-7.84-14.63-27.63-12.2-41-8.38,3.7-10.65,10.5-25.18,22.78-27.28s24.12,5.48,34.72,10.38c9.46,4.38,26.1,9.88,32.93-2.07,2.08-5-4.09-9.21-9.49-12.64a94.44,94.44,0,0,0-17.14-9c129.83-27.54,133.41,244.87-4,206A159.43,159.43,0,0,1,152,240.61c12.84,1.07,26.66-.29,36.93-8.62,8.8-7.12,13.45-22-1.05-25.45-13-3.1-27.21,4.83-40.06,5.92-16.17,1.37-30,1.78-39.17-11,7.12-.89,12.63-2.78,15.43-4.81,4.84-3.49,9.53-8.39,10-14.63.82-11.95-8.36-23.13-18.64-28.22a21.75,21.75,0,0,0-15.57-1.67c-6.61,1.95-8.52,7.65-13.15,12s-8.77,7.44-15,8.68c-7.28,1.29-14.32-2.21-19.93-6.56a92.29,92.29,0,0,1-8.42-8C55,160,70.63,163,77.5,149.85c5.51-10.57-1-22.59,4.8-33.28,7.49-13.73,26.51-3,35.85,2.42C128.86,125.18,139.53,138.39,154.05,132.35Z" transform="translate(-43.31 -44.1)"/><path class="cls-8" d="M217.4,189.71a64,64,0,0,0,.48-72h0a4.8,4.8,0,1,0-8,5.35h0a54.41,54.41,0,0,1-.41,61.18h0a4.8,4.8,0,0,0,7.91,5.45Z" transform="translate(-43.31 -44.1)"/><path class="cls-8" d="M236,202.47a86.59,86.59,0,0,0,.63-97.25h0a4.8,4.8,0,1,0-8,5.34h0A77,77,0,0,1,228,197h0a4.8,4.8,0,1,0,7.91,5.45Z" transform="translate(-43.31 -44.1)"/><path class="cls-8" d="M246.44,98.62a98.46,98.46,0,0,1-.72,110.57h0a4.8,4.8,0,1,0,7.91,5.45h0a108,108,0,0,0,.79-121.37h0a4.8,4.8,0,0,0-8,5.35Z" transform="translate(-43.31 -44.1)"/></svg>