<svg id="Layer_1" data-name="Layer 1" xmlns="http://www.w3.org/2000/svg" viewBox="0 0 946 476.24"><defs><style>.cls-1,.cls-11{font-size:95px;font-family:Chalkduster, Chalkduster;}.cls-1{fill:#66ed20;}.cls-2{letter-spacing:-0.02em;}.cls-3{letter-spacing:-0.05em;}.cls-4,.cls-5{fill:#8acc13;}.cls-5{font-size:31.24px;font-family:CenturyGothic, Century Gothic;letter-spacing:0.24em;}.cls-6{letter-spacing:0.24em;}.cls-7{letter-spacing:0.25em;}.cls-8{letter-spacing:0.25em;}.cls-9{letter-spacing:0.25em;}.cls-10{fill:#fff;}.cls-11{fill:#3cb3ef;}.cls-12{letter-spacing:0.03em;}.cls-13{letter-spacing:0.02em;}.cls-14{letter-spacing:0em;}.cls-15{letter-spacing:-0.04em;}</style></defs><title>drupalbar</title><text x="-197.24" y="-97.74"></text><text class="cls-1" transform="translate(314.12 405.07)"><tspan class="cls-2">b</tspan><tspan class="cls-3" x="53.01" y="0">a</tspan><tspan x="113.58" y="0">r</tspan></text><path class="cls-4" d="M815.24,417.88,807,423q-10.69-14.13-29.19-14.13-14.79,0-24.56,9.47a30.83,30.83,0,0,0-9.76,23A32.58,32.58,0,0,0,748,457.9,31.48,31.48,0,0,0,760.31,470a36,36,0,0,0,17.57,4.29q17.82,0,29.12-14.13l8.24,5.42a39.08,39.08,0,0,1-15.57,13.53,49.8,49.8,0,0,1-22.25,4.8q-19.17,0-31.8-12.15A39.47,39.47,0,0,1,733,442.16a42.19,42.19,0,0,1,5.9-21.74,41.62,41.62,0,0,1,16.24-15.67,47.51,47.51,0,0,1,23.11-5.63,49.8,49.8,0,0,1,15.49,2.44,43.44,43.44,0,0,1,12.67,6.35A34.73,34.73,0,0,1,815.24,417.88Z" transform="translate(-197.24 -97.74)"/><path class="cls-4" d="M905.53,401.12v80.75H895.15V468a43.91,43.91,0,0,1-14.64,11.91,39.81,39.81,0,0,1-17.75,4,39.37,39.37,0,0,1-29.24-12.41,41.58,41.58,0,0,1-12.12-30.19,40.82,40.82,0,0,1,12.23-29.77,39.88,39.88,0,0,1,29.43-12.38,38.33,38.33,0,0,1,18,4.19A40.62,40.62,0,0,1,895.15,416V401.12Zm-41.65,8a31.29,31.29,0,0,0-27.65,16.19,32.58,32.58,0,0,0,0,32.53A31.75,31.75,0,0,0,848,469.92a30.63,30.63,0,0,0,15.8,4.33A32.4,32.4,0,0,0,879.94,470a30,30,0,0,0,11.73-11.61,33,33,0,0,0,4.11-16.48q0-14-9.22-23.36A30.52,30.52,0,0,0,863.88,409.12Z" transform="translate(-197.24 -97.74)"/><path class="cls-4" d="M922.25,401.12h10.38v14q5.43-7.72,11.16-11.29a32.05,32.05,0,0,1,16.58-4.67,27.7,27.7,0,0,1,11.16,2.3,24.05,24.05,0,0,1,8.63,6.13,32.9,32.9,0,0,1,5.8,10.94,38.3,38.3,0,0,1,13-14.43,30.72,30.72,0,0,1,16.75-4.94,26.22,26.22,0,0,1,14.79,4.23,25.18,25.18,0,0,1,9.53,11.79q3.12,7.56,3.12,22.69v44H1032.5v-44q0-13-1.85-17.82a16.09,16.09,0,0,0-6.34-7.82,19,19,0,0,0-10.7-3,23.29,23.29,0,0,0-13.82,4.45,25.6,25.6,0,0,0-9.15,11.85q-2.89,7.41-2.89,24.75v31.57H977.38V440.59q0-14.59-1.83-19.82a16.59,16.59,0,0,0-6.35-8.37,18.42,18.42,0,0,0-10.78-3.15,23.3,23.3,0,0,0-13.49,4.33,25.59,25.59,0,0,0-9.29,11.68q-3,7.33-3,22.45v34.16H922.25Z" transform="translate(-197.24 -97.74)"/><path class="cls-4" d="M1059.23,401.12h10.38V416a41.29,41.29,0,0,1,14.14-12.66,37.93,37.93,0,0,1,17.85-4.19A39.85,39.85,0,0,1,1131,411.5a40.81,40.81,0,0,1,12.22,29.77,41.61,41.61,0,0,1-12.11,30.19,40.77,40.77,0,0,1-46.92,8.4,44.47,44.47,0,0,1-14.59-11.95v43.46h-10.38Zm41.59,8a30.45,30.45,0,0,0-22.64,9.39q-9.2,9.39-9.2,23.36a33.14,33.14,0,0,0,4.1,16.48A29.89,29.89,0,0,0,1084.83,470a32.46,32.46,0,0,0,16.14,4.29,30.43,30.43,0,0,0,15.7-4.33,31.75,31.75,0,0,0,11.7-12.08,32.65,32.65,0,0,0,0-32.53,31.23,31.23,0,0,0-27.59-16.19Z" transform="translate(-197.24 -97.74)"/><text class="cls-5" transform="translate(690.15 279.25)">SH<tspan class="cls-6" x="52.1" y="0">A</tspan><tspan class="cls-7" x="82.8" y="0">NG</tspan><tspan x="148.56" y="0">H</tspan><tspan class="cls-8" x="177.5" y="0">A</tspan><tspan class="cls-9" x="208.36" y="0">I</tspan></text><path class="cls-4" d="M308,401.63c13.16-5.49,13.69-26.41,7.84-37.33-7.84-14.64-27.63-12.21-41-8.38,3.7-10.65,10.5-25.19,22.78-27.29s24.12,5.48,34.72,10.39c9.46,4.38,26.1,9.88,32.93-2.08,2.08-5-4.09-9.2-9.49-12.63a94.44,94.44,0,0,0-17.14-9c129.83-27.54,133.41,244.86-4,206a159.14,159.14,0,0,1-28.66-11.49c12.84,1.07,26.66-.29,36.93-8.62,8.8-7.13,13.44-22-1.05-25.45-13-3.11-27.21,4.83-40.06,5.92-16.17,1.37-30,1.77-39.17-11,7.12-.89,12.63-2.78,15.43-4.81,4.84-3.49,9.53-8.39,9.95-14.64.82-11.94-8.35-23.13-18.63-28.21a21.8,21.8,0,0,0-15.57-1.68c-6.61,1.95-8.52,7.66-13.15,12.05s-8.77,7.43-15,8.68c-7.28,1.29-14.33-2.21-19.93-6.56a91,91,0,0,1-8.42-8c11.71,1.67,27.32,4.69,34.18-8.45,5.52-10.57-1-22.59,4.81-33.28,7.49-13.74,26.51-3,35.85,2.42C282.79,394.47,293.46,407.68,308,401.63Z" transform="translate(-197.24 -97.74)"/><path class="cls-10" d="M371.33,459a64,64,0,0,0,.47-72h0a4.8,4.8,0,1,0-8,5.34h0a54.47,54.47,0,0,1-.41,61.19h0a4.8,4.8,0,0,0,7.91,5.45Z" transform="translate(-197.24 -97.74)"/><path class="cls-10" d="M389.87,471.76a86.6,86.6,0,0,0,.63-97.26h0a4.8,4.8,0,1,0-8,5.35h0a77,77,0,0,1-.57,86.46h0a4.8,4.8,0,0,0,7.91,5.45Z" transform="translate(-197.24 -97.74)"/><path class="cls-10" d="M400.37,367.91a98.46,98.46,0,0,1-.72,110.57h0a4.8,4.8,0,1,0,7.91,5.44h0a108.08,108.08,0,0,0,.79-121.36h0a4.8,4.8,0,1,0-8,5.35Z" transform="translate(-197.24 -97.74)"/><text x="-197.24" y="-97.74"></text><text class="cls-11" transform="translate(234.15 290.65)">d<tspan class="cls-12" x="74.21" y="0">r</tspan><tspan class="cls-13" x="126.91" y="0">u</tspan><tspan class="cls-14" x="193.67" y="0">p</tspan><tspan class="cls-15" x="252.35" y="0">a</tspan><tspan x="313.97" y="0">l</tspan></text><text x="-197.24" y="-97.74"></text></svg>