<svg id="图层_1" data-name="图层 1" xmlns="http://www.w3.org/2000/svg" viewBox="0 0 3719.67 352.25"><defs><style>.cls-1,.cls-2,.cls-3,.cls-4{fill:#df0038;}.cls-2,.cls-3,.cls-4{isolation:isolate;font-size:48.26px;font-family:ArialMT, Arial;}.cls-2{letter-spacing:0.23em;}.cls-3{letter-spacing:0.17em;}.cls-4{letter-spacing:0.25em;}.cls-5{fill:#23ff00;}.cls-6{fill:#ed4723;}.cls-7{fill:#00df2b;}</style></defs><title>share-logo</title><g id="Layer0_0_FILL" data-name="Layer0 0 FILL"><path class="cls-1" d="M2346.9,795.4q4.65,31.5-18,46.3-30.15,21.15-48.6,35.4a165.29,165.29,0,0,0-43.4,52.1q-33.15,65.7-1.9,132.2t104.2,83q60.9,12.45,116-22.8,72.9-51.6,64.6-141.6-5.25-75-98.3-132.7c-26.5-16.9-51.3-34.1-74.6-51.9m9.6,73.5a26.68,26.68,0,0,1,31.4-21.1,25.51,25.51,0,0,1,9.1,3.6,44.5,44.5,0,0,1,19.5,22,43,43,0,0,1,2.7,29.1l-1.2,4.2c-.6,2.1-1.9,5.8-4,11a109.12,109.12,0,0,0-5.2,17.1,30.26,30.26,0,0,0,3.2,20,114,114,0,0,1,8.3,24.7,94.85,94.85,0,0,1,.4,33.6,89.91,89.91,0,0,0-9.4-37.4c-5.4-10.5-9-17.3-10.3-20.5a41.22,41.22,0,0,1-3-9.8,48.32,48.32,0,0,1-.1-12.6,65.42,65.42,0,0,1,2.3-13.1,86.8,86.8,0,0,1,3.3-9.8c1.1-2.7,2.2-6.5,3.5-11.1a25.08,25.08,0,0,0-1.8-16.4,27.77,27.77,0,0,0-12.4-14.4,17.68,17.68,0,0,0-24.3,5.8,16,16,0,0,0-2.2,5.6,21.27,21.27,0,0,0-.7,4.4,39.67,39.67,0,0,0-.1,4.9,36.86,36.86,0,0,0,.6,8.1,54.58,54.58,0,0,0,4.3,13.7c.7,2.7-.5,2.4-3.6-1.1a39.66,39.66,0,0,1-7.4-11.2,44.16,44.16,0,0,1-2.7-29.3m24.7,7.2a9.55,9.55,0,0,1,8.4.4,16.19,16.19,0,0,1,7.6,17.6,9.11,9.11,0,0,1-13.8,5.9,15.52,15.52,0,0,1-6.7-7.6,14.93,14.93,0,0,1-.9-10,9.24,9.24,0,0,1,5.4-6.3m-64.6,82.7q-11.85-14.7-24.9-18.6c-8.7-2.6-19.9-2-33.3,1.9a114.26,114.26,0,0,1,30.1-41.4c18.5-4.4,35.6,5.7,51.3,30.5a58.89,58.89,0,0,0,29.1,28.9,73.45,73.45,0,0,1,29.4,22.3,90.12,90.12,0,0,1,15.1,35.1,149.47,149.47,0,0,0-21.8-25.2c-7.2-6.6-19.5-11.3-37-14.3s-30.1-9.4-37.8-19.2m-18.6,23.1c12.6,7,24.4,9.8,35.5,8.5a67.69,67.69,0,0,1,50.8,10.6,144.13,144.13,0,0,1,30.3,27q6.3,6,12.6,0,25.2-25.65,51.3-31.7c2-.5,3.9-.8,5.7-1.1a36.17,36.17,0,0,1,5.7-.1,18.3,18.3,0,0,0,9.2-5.1,23.71,23.71,0,0,1,18.4-6.8,36.56,36.56,0,0,0-8.1,22.9c-.2,3-.2,5.4-.2,7.5s.7,3.7.9,5.7a66.61,66.61,0,0,1-1.1,18.9q-7.8,24.3-24.3,35.1a31.19,31.19,0,0,1-20.6,5.2c-8.8-1-18.4-8.4-28.9-22.2l-9.8-12.8c-3.2-4.4-7-4.7-11.5-.9a250.36,250.36,0,0,1-36.8,27,69.36,69.36,0,0,1-43.9,10.5,46.13,46.13,0,0,1-32.7-19.1,47.58,47.58,0,0,1-7.8-24.3v-.8a87.19,87.19,0,0,0-14.1-38.7c-5.1-7.2-13.6-14.2-25.3-21.1,17-3.3,31.7-1.3,44.4,5.7m183.1-40.7c-3.3,2.7-7.1,8.9-11.5,18.2s-10.3,15.5-17.7,18.5a28.42,28.42,0,0,0-15.6,14.3,189.47,189.47,0,0,0-9.1,25.2,174.69,174.69,0,0,1,6.3-35.1,56.45,56.45,0,0,1,12.4-22.3c5.4-5.6,9.3-15.3,12.2-28.9,3.6-13.6,10.1-22.1,19.6-25.5,8.2,5.8,15.6,16.5,22.2,32-9.3-.4-15.5.8-18.8,3.6M2429,1076a15.67,15.67,0,0,1,2.3,4.9c.5,3.3-.2,5.2-1.9,5.7a4.77,4.77,0,0,1-4.9-1.5,7.48,7.48,0,0,0-3.9-2.1,16.11,16.11,0,0,0-4.4-.6,24.38,24.38,0,0,0-12.1,2.7c-4,2-6.9,2.7-8.6,2s-1.8-2.1-.3-4.7a24.38,24.38,0,0,1,10.4-8.1,26,26,0,0,1,15.7-3,11.2,11.2,0,0,1,7.7,4.5m4.1,18h1.1a10.85,10.85,0,0,0,4.7-.8c3.4-1.1,5.2-3.1,5.3-5.9a7.06,7.06,0,0,0-.5-3.8v-.8a4.47,4.47,0,0,1,3.6-5.3,2.2,2.2,0,0,1,.8-.1,12.1,12.1,0,0,1,11.3,4.6c3.2,3.5,4.8,9.1,4.9,17a23.9,23.9,0,0,1-9.2,18.5,53.29,53.29,0,0,1-17.6,10.8c7.6-7.4,11.1-13.5,10.8-18.4s-1.7-7.7-3.7-8.1c.7.4.8,1.4.1,3s-2.9,3.7-7.1,6.7-12.6,5.4-25.5,7.7c-20.9,2.4-36.9.1-48.1-7.1q-6.15-3.75-5.7-7.8a3,3,0,0,1,1-1.9,7.71,7.71,0,0,0-4.4,4.1,25.38,25.38,0,0,0-2.2,8.6,20.25,20.25,0,0,0,1.7,10.3,23.15,23.15,0,0,0,4.6,6.9,30.2,30.2,0,0,0,7.9,5.9c2.2,1.3,4.5,2.5,6.8,3.6,1.2.6,2.5,1.2,3.8,1.8a79.55,79.55,0,0,1-35.8-13q-14.1-10.8-5.4-27.9a60.67,60.67,0,0,1,18.5-18.9,33.75,33.75,0,0,1,21.6-5.9c6.6,1.2,8.3,3.9,5.4,8.1-2.2,3-3,5.2-2.5,6.3.9,1.9,5,2.8,12.2,2.7l10.7-.7h30.9m-57.9-44.7c1.7,2.2,2.2.6,1.6-4.6-1.2-12.6-6.6-20.5-16.2-23.8s-17.7-3.3-24.3-.1-10.6,6.5-12.1,10.1-.9,4.7,1.9,3.3q31.65-12.45,48.9,15.1m116-13.3c-1-2.7-4-5-8.8-7.4s-10.8-2.3-17.8,0-11,8.1-11.8,17.4c-.4,3.9,0,5,1.2,3.4,8.5-13.5,20.5-17.3,36-11.1,2.2,1,2.6.2,1.4-2.4Z" transform="translate(-119.5 -795.4)"/></g><g id="Layer0_1_FILL" data-name="Layer0 1 FILL"><path class="cls-1" d="M3794.2,996.1a16.49,16.49,0,0,0,7-4.6,20,20,0,0,0,4.3-10.4c-.9-9.4-7.1-15.8-18.6-19a93.48,93.48,0,0,0-28.8-3.3,74.28,74.28,0,0,0-25.3,6.4,21.41,21.41,0,0,0-8.9,7.4,19.3,19.3,0,0,0-4,10.3c-.6,6.2,2.5,10.8,9.4,13.9a91.44,91.44,0,0,0-12.9,2.2,50.6,50.6,0,0,0-21,11.6,22.7,22.7,0,0,0-7.6,16.5,18.38,18.38,0,0,0,6.3,13.5,35.69,35.69,0,0,0,17,7.7c5.8.8,13.1,1.4,21.7,1.8l31,.8c9.2,0,18.4-.4,27.6-1.3a98.56,98.56,0,0,0,20.2-3,33.6,33.6,0,0,0,14.6-7.3,24.29,24.29,0,0,0,6.3-14.1,22.34,22.34,0,0,0-10.8-19.4c-6.6-4.4-15.7-7.6-27.5-9.7m-16.8-19.3c5,4.1,4.8,8.2-.5,12.5a120.65,120.65,0,0,0-11.6,11l-.9,1.8v1l.9,2.1a122.72,122.72,0,0,0,11.6,11.2c5.3,4.2,5.4,8.2.5,12.2s-11.1,5.4-18.9,4c-8.3-1.5-12.9-4.2-13.7-8.1-.1-4.4,2.4-8.5,7.4-12.5,4.2-3.5,6.4-6.4,6.9-8.8v-1q-.6-3.15-6.9-8.4c-5-4.4-7.5-8.6-7.5-12.8.8-4.1,5.4-6.7,13.7-8.1,7.8-1.5,14.1-.2,18.9,3.7m61.2-2.6a36.63,36.63,0,0,0,0-14,26.92,26.92,0,0,0-11.6-15.1,70,70,0,0,0-24.9-7.6,425.57,425.57,0,0,0-78.2,0,68.49,68.49,0,0,0-25.6,5.6,30,30,0,0,0-14.6,13.5,31.35,31.35,0,0,0-4,14.6,12.26,12.26,0,0,0,4.5,10,19.49,19.49,0,0,0,12.1,2.1,27.35,27.35,0,0,0,12.1-6.7,88.44,88.44,0,0,1,10.6-10.6,58.92,58.92,0,0,1,11.3-7.3,23.65,23.65,0,0,1,11-3.4,102.9,102.9,0,0,1,19.2-1.5,107.78,107.78,0,0,1,24.1,1.5,32.11,32.11,0,0,1,15.6,6.7,29.91,29.91,0,0,1,7.1,7.1,38.08,38.08,0,0,1,6.4,10.8,14.69,14.69,0,0,0,8.1,6.6,19.68,19.68,0,0,0,11.5-.8,31.81,31.81,0,0,0,5.3-11.5m-757.2,44.1c7.8-7.4,11.8-17.8,12.2-31.3a38.18,38.18,0,0,0-16.2-28c-9-6.5-21.9-10.1-38.9-10.8a42.39,42.39,0,0,0-11.2,1.9,89.57,89.57,0,0,0-12.1,4.8,15.93,15.93,0,0,0-2.7-11.6,11.54,11.54,0,0,0-10.1-3.4l-12.9,3.4a30.38,30.38,0,0,1-10.3,2.4,7.15,7.15,0,0,1-6.3-1.3,8.39,8.39,0,0,0-1.8,7.6l3.4,8.3a39.45,39.45,0,0,1,3.3,11.6l-.9,38c-.6,11.4-1.4,22-2.4,31.9l-.9,7.6c-2.7,7.6-2.1,13.2,1.5,16.5s10.8,4.4,20.4,3.4c7.4,0,12.4-2.5,14.9-7.4s2.8-12.8.9-23.4a18.87,18.87,0,0,1,.8-9.7v-.6l1.9-2.1a65.12,65.12,0,0,0,13.9,3.1,167.18,167.18,0,0,0,19.9,1.8c15-1.2,26.2-5.4,33.6-12.7M3054.5,977c7.2,9.6,8.6,16.7,4.2,21.1s-11,7.8-19.6,10.1c-8.7,1.8-15.3-2.2-19.7-11.9-4.3-10.1-2-18.2,6.7-24.3,9.1-6.4,17.2-6.1,24.3,1.1,1.3,1.2,2.7,2.5,4,3.9m125.2,60.5c19.7-.6,30.6-1.2,32.9-1.8a23.24,23.24,0,0,1-5.8-7.1,15.82,15.82,0,0,1-2.5-8.9,46.14,46.14,0,0,1,4.5-17,61.85,61.85,0,0,0,3.4-17q.45-31.8-31.1-39.3a188.57,188.57,0,0,0-27.8-4.2q-23.1,2.85-35.1,8.7c-8,3.9-12.5,9-13.5,15.5a14.49,14.49,0,0,0,1.9,8.1,7.29,7.29,0,0,0,6.3,3,57.88,57.88,0,0,0,17.9-4.3,63.25,63.25,0,0,1,19.2-4c12.2,1.4,19.7,4.2,22.6,8.3l-.9,1.3a82.84,82.84,0,0,0-25.8-1.3,90.34,90.34,0,0,0-23.4,5.9,37.15,37.15,0,0,0-15,11.6,25.61,25.61,0,0,0-4.9,15.6,24.56,24.56,0,0,0,8.5,18.2c5.6,4.2,13.5,6.6,23.7,7.3a55.79,55.79,0,0,0,15.2-2.7,76.34,76.34,0,0,1,15-2.1h.5a18.88,18.88,0,0,0,14.4,6.3m-31-45.8c6.9-1.2,12.1,1.7,15.6,8.8s2.2,12.6-4,16.5c-6.4,4.2-12,4.8-16.5,1.9a79.62,79.62,0,0,1-10.1-7.1c-3.6-5.6-3.7-10.2-.5-13.5a28.77,28.77,0,0,1,15.5-6.6m96.7-87.2a58.28,58.28,0,0,1-14.3,3.3q-5.4.3-6.3-1.8-2.85,1.35-3.6,8.1a11.3,11.3,0,0,0,4,8.9,7.8,7.8,0,0,1,3,5.4v78.6q-1.65,15.45,3.3,22.8c3.3,4.9,8.6,7.6,15.9,7.6a62.15,62.15,0,0,0,14.9-1.3q4.8-1.35,4.8-4.2a14.8,14.8,0,0,0-2.1-6.1c-.9-2.7-1.3-10.5-1.3-23.2v-6.3a82.8,82.8,0,0,1,0-12.2l1.3-20.9c1.2-12.8,2.2-26.8,3-42.1a23.2,23.2,0,0,0-4.3-13.7,13.47,13.47,0,0,0-10.8-4.9l-7.5,2m164.3-12.8a34.74,34.74,0,0,0-17.9,3.6,41.85,41.85,0,0,0-14.1,12.7,24.54,24.54,0,0,1-7.7,8.9,29,29,0,0,1-11.9,4.9,37.72,37.72,0,0,0-18.7,8.8,42.76,42.76,0,0,0-10.8,18.5l-2.4,11.9-.9,13.5a72.25,72.25,0,0,0,1.9,17.3,45.79,45.79,0,0,0,5.8,14.3,28.91,28.91,0,0,0,8.3,9.1,28.52,28.52,0,0,0,12.7,4.5,27.52,27.52,0,0,1,13.7,3.9,17,17,0,0,1,6.3,9.8,32.09,32.09,0,0,0,13.5,15.8,42.31,42.31,0,0,0,22.6,4.9,38,38,0,0,0,20.3-4.9,30.64,30.64,0,0,0,12.8-14.3,23.72,23.72,0,0,1,6.9-9.4,50.87,50.87,0,0,1,12.9-7.1,42.49,42.49,0,0,0,15.2-8.6,35,35,0,0,0,8.9-13.8,89.91,89.91,0,0,0,3.4-24.1,78.45,78.45,0,0,0-3-22.6,41.07,41.07,0,0,0-9.4-15.8,42.22,42.22,0,0,0-16.2-10.1,61.7,61.7,0,0,1-12.7-6.7,48.74,48.74,0,0,1-9.8-8.9,39.27,39.27,0,0,0-12.9-12.1,37,37,0,0,0-17-3.7M3353.2,955c8.3-6,16.9-5.9,25.8.2a157.61,157.61,0,0,0,22.9,14,7.92,7.92,0,0,0,4,1h3.3a13.85,13.85,0,0,0,3.3-1,172.06,172.06,0,0,0,22.8-14c9-6.1,17.5-6.1,25.6-.2a19.08,19.08,0,0,1,8.3,22.8q-4.5,14.85-16.8,16.2a43.25,43.25,0,0,1-26.4-8.6,51.23,51.23,0,0,0-16.8-8.1,1.93,1.93,0,0,0-1-.3,2.28,2.28,0,0,1-1.1-.3,2.66,2.66,0,0,1-1.2.3c-4.6.6-10.4,3.4-17.6,8.3a43.25,43.25,0,0,1-26.4,8.6q-12.45-1.2-16.8-16.2a18.66,18.66,0,0,1,8.1-22.7m399.7-54.2-9.8-4.5c-11.9-5.4-22.2-4.7-30.8,2.1a21.91,21.91,0,0,1-12.9,4.9,27.2,27.2,0,0,0-14.5,3.6,12.45,12.45,0,0,0-6.1,9.4,10.79,10.79,0,0,0,5.2,8.1,27.29,27.29,0,0,0,13.5,2.7,27.59,27.59,0,0,1,8.1.4,89.54,89.54,0,0,1,12.4,3,30.64,30.64,0,0,0,11.6,1.8,52.21,52.21,0,0,0,14.5-3.1c8-3.6,13.5-5.2,16.4-4.8a24.8,24.8,0,0,1,13.5,4,41.24,41.24,0,0,0,14.6,4,63.48,63.48,0,0,0,16.2-2.4,43.75,43.75,0,0,1,15.2-3,27,27,0,0,0,13.2-1.9,9.09,9.09,0,0,0,5.4-7.4,9.59,9.59,0,0,0-3-8.6,18.28,18.28,0,0,0-11.6-3,20.2,20.2,0,0,1-7.7-1.8,44.61,44.61,0,0,1-9.2-6.4,24.86,24.86,0,0,0-14-4.3,32.35,32.35,0,0,0-15.6,3.4,46.53,46.53,0,0,1-9.2,4.6,12.34,12.34,0,0,1-7.1.9,22.7,22.7,0,0,1-8.1-1.8m-125.6.7c-11.8-4.7-26.9-6.9-45.4-6.6-22.2-.3-39.4,3.7-51.8,11.9s-20,20.9-22.9,38.1c-5,28.8-3.6,53.3,4.2,73.7a45.66,45.66,0,0,0,25.5,26.2c12.4,5.8,28.8,8.4,49.1,7.7q31.2-.6,49-12.1a47.69,47.69,0,0,0,22.9-32.6,157.15,157.15,0,0,0,4.5-47.3,100.07,100.07,0,0,0-9.1-38.4,49.18,49.18,0,0,0-26-20.6m-7,29.7c8.6,8.5,13.1,20.9,13.5,37.1.8,13.3-1.5,23.7-6.7,31.1s-13.4,12.1-24.5,14a99,99,0,0,1-25.5,1.8,77.6,77.6,0,0,1-22.8-5c-11.3-5.6-18.1-13.6-20.3-24-2.3-10.8,0-24,6.9-39.8a50.68,50.68,0,0,1,16.5-23.2,38.78,38.78,0,0,1,24.6-6.3c16.9.9,29.7,5.6,38.3,14.3m-3.5,48.2a4.8,4.8,0,0,0-1.7-3.7,11.66,11.66,0,0,0-5.8-1.2,13.86,13.86,0,0,0-6.9,1.2,4.22,4.22,0,0,0-2.7,3.7c.6,2.3,3.6,3.4,9.1,3.4,4.8,0,7.4-1.1,8.1-3.4m-4.1-44.6a10.3,10.3,0,0,0-3.9-4.6,33.86,33.86,0,0,0-10.3-5.4,49.9,49.9,0,0,0-13.9-1.6,77.39,77.39,0,0,0-15.2,1.3,21.12,21.12,0,0,0-8.9,4c-3.1,2.7-4.3,5.2-3.7,7.5s3.6,4.4,8.6,5.8c2.3.3,3.4,1.1,3.4,2.4a3,3,0,0,1-1.8,3.8.35.35,0,0,0-.2.1,35.51,35.51,0,0,0-13.9,5.8,9.64,9.64,0,0,0-4,8.1,5.43,5.43,0,0,0,2.1,5.8,24.31,24.31,0,0,0,8.1,3.9c5.6,1.9,8.1,4,7.6,6.3a4.34,4.34,0,0,1-2.7,4.2,22.77,22.77,0,0,1-8.9,2.1,7.51,7.51,0,0,0-5.4,2.4,14,14,0,0,0-2.2,6.3c1.1,5,4.8,8.8,11.2,11.5a90.13,90.13,0,0,0,27.2,4.5,67.47,67.47,0,0,0,16.8-1.6,30.06,30.06,0,0,0,11.8-6c3.2-3.6,4-6.6,2.5-9.2s-5-4.4-10.8-5.8a26.72,26.72,0,0,1-8.9-1.9c-2.1-.9-3.1-2-3.1-3.4a9,9,0,0,1,1.3-5.1,11.45,11.45,0,0,1,4.9-2.5,66.32,66.32,0,0,0,17.4-5.4c3.6-2.2,4.8-4.5,3.7-6.9a8.16,8.16,0,0,0-4.6-8.1,33.55,33.55,0,0,0-14.6-3q-3.6-.9-3.6-2.7a3,3,0,0,1,2.6-3.4h.1c6-.4,9.6-1.8,11-4a6,6,0,0,0,0-4.9m-902.1,87q24.6-15,24.3-45.6-.9-31.65-25.5-48.1c-16.7-10.8-41.3-16.4-74-17a85.29,85.29,0,0,1-22.5-2.4c-5.3-1.5-8.5-3.7-9.7-6.6a41.14,41.14,0,0,0-3.3,9.7,33.63,33.63,0,0,0-.9,10,35.5,35.5,0,0,0,4.6,13.5,17,17,0,0,0,9.2,6.6c-1.8,11-4.2,22-7.1,32.8a197.88,197.88,0,0,0-4.9,24.1,130,130,0,0,0-1.8,19.7,14.33,14.33,0,0,0,2.2,8.1,15.12,15.12,0,0,0,7.3,5.4,36.29,36.29,0,0,0,11.6,3.1,76.19,76.19,0,0,0,16.5.9c33,.3,57.5-4.4,73.7-14M2661,929.8a179.78,179.78,0,0,0,17.6,12.4c14.5,9.3,22.2,19.8,23.1,31.4a34.56,34.56,0,0,1-15.1,33.5,36.42,36.42,0,0,1-27.2,5.6,35.08,35.08,0,0,1-24.7-19.9,33.91,33.91,0,0,1,0-31,49.07,49.07,0,0,1,10.4-12.7l11.6-8.3a9.7,9.7,0,0,0,4.3-11m158.1,21.6a16.69,16.69,0,0,0-8.1,2.2l-25.3,14.3a37.48,37.48,0,0,0-1.3-17.9,10.39,10.39,0,0,0-9.8-6.2,44,44,0,0,0-14.3,3.4,16.44,16.44,0,0,1-6.9,1.8,5.42,5.42,0,0,1-4.3-3.4,13.25,13.25,0,0,0-2.4,9.2,20,20,0,0,0,1.9,6.3,16,16,0,0,1,1.8,6l1.7,22.1a162.46,162.46,0,0,1-2.1,19.7q-2.7,17.1,1.8,24.3c3,4.8,8.5,6.2,16.5,4.5,7.2.5,12.1-1,14.7-4.6q4.35-5.4,1.8-17.4c-1.5-8.5,1.3-16.5,8.3-24s18.5-14.2,34.1-20.3c2.4-1.4,3.6-2.5,3.6-3.4a28.34,28.34,0,0,0-3.6-11.2,13,13,0,0,0-8.1-5.4m62.4,12a11.39,11.39,0,0,0-3.3-9.1,16.3,16.3,0,0,0-10.6-3.9,23.48,23.48,0,0,0-8.9,3,23.52,23.52,0,0,1-8.6,2.4,5.85,5.85,0,0,1-5.7-1.9,232.82,232.82,0,0,0-4.2,37.2c-.6,14.9,2.3,25.8,8.6,32.6,6.6,7.2,16.8,10.4,30.7,9.7,11.1,0,25-.7,41.5-2.1a14.13,14.13,0,0,0,6,7,23.23,23.23,0,0,0,10.3,2.7q17.85-.6,22.8-8.1a39.71,39.71,0,0,1-8.7-20,89.16,89.16,0,0,1,1.3-28.7l2.4-12.9a95.67,95.67,0,0,0,3-20q-.45-4.95-24.6-8.1l-1.6-.9h-1.8a17.6,17.6,0,0,0-11.8,2.7,8.58,8.58,0,0,0-4.3,8.5,403.54,403.54,0,0,0,3,46.6,21.08,21.08,0,0,1-8.8,4.8,160.43,160.43,0,0,1-19.3,4.9,11.85,11.85,0,0,1-7.9-4.5,19.75,19.75,0,0,1-3.7-10.1,81.45,81.45,0,0,1,2.2-15.6,88.31,88.31,0,0,0,1.8-16.2Z" transform="translate(-119.5 -795.4)"/></g><path class="cls-1" d="M570.3,875.8v61.8a58.31,58.31,0,0,1,18.4-12.7,52.65,52.65,0,0,1,21.1-4.2,54.48,54.48,0,0,1,41.5,18.4q17.1,18.45,17,47.3a65.21,65.21,0,0,1-17.6,46.5,55.24,55.24,0,0,1-41.8,18.7,50.49,50.49,0,0,1-20-3.8,59.4,59.4,0,0,1-18.4-12.5v13.1H539.2V875.8Zm32.8,73.6a32.1,32.1,0,0,0-24.4,10.1,36.87,36.87,0,0,0-9.7,26.4,38.31,38.31,0,0,0,9.7,27,32.28,32.28,0,0,0,24.4,10.3,31.58,31.58,0,0,0,24.1-10.4,38,38,0,0,0,9.8-26.7,37.22,37.22,0,0,0-9.6-26.4,31.79,31.79,0,0,0-24.2-10.4v.1Z" transform="translate(-119.5 -795.4)"/><path class="cls-1" d="M776.4,923.8h31.3v124.7H776.4v-13.2a62.44,62.44,0,0,1-18.4,12.5,50.83,50.83,0,0,1-20,3.8,55.59,55.59,0,0,1-41.8-18.7,64.81,64.81,0,0,1-17.6-46.4q0-28.8,17.1-47.3a54.48,54.48,0,0,1,41.5-18.4,53,53,0,0,1,21.1,4.2,58.52,58.52,0,0,1,18.2,12.5Zm-32.9,25.5a31.64,31.64,0,0,0-24.1,10.3,37.22,37.22,0,0,0-9.6,26.4,37.67,37.67,0,0,0,9.8,26.7,31.43,31.43,0,0,0,24.1,10.4,32.28,32.28,0,0,0,24.4-10.3,37.86,37.86,0,0,0,9.7-27,36.71,36.71,0,0,0-9.7-26.4,32.53,32.53,0,0,0-24.6-10.1Z" transform="translate(-119.5 -795.4)"/><path class="cls-1" d="M827.1,923.8h27v15.8a33.65,33.65,0,0,1,11.5-14.1,27.22,27.22,0,0,1,15.8-4.8,29.83,29.83,0,0,1,12.7,3.2l-9.7,27a20.49,20.49,0,0,0-9-2.7c-4.8,0-8.9,3-12.2,8.9s-5,17.6-5,35.1v56.3H826.9Z" transform="translate(-119.5 -795.4)"/><path class="cls-1" d="M1017.2,949.7l-12.7,7.9c-11-14.6-26-21.8-45.1-21.8a52.24,52.24,0,0,0-37.9,14.6,47.77,47.77,0,0,0-15.1,35.5,51.19,51.19,0,0,0,6.9,25.6,48.53,48.53,0,0,0,19,18.6,54.75,54.75,0,0,0,27.2,6.6,55.47,55.47,0,0,0,45-21.8l12.7,8.4a60.58,60.58,0,0,1-24,20.9,77,77,0,0,1-34.4,7.4q-29.7,0-49.1-18.9A61,61,0,0,1,890.2,987a65.23,65.23,0,0,1,9.1-33.6,63.74,63.74,0,0,1,25.1-24.3,72.82,72.82,0,0,1,35.7-8.7,77.58,77.58,0,0,1,23.9,3.8,69.27,69.27,0,0,1,19.6,9.8A56.67,56.67,0,0,1,1017.2,949.7Z" transform="translate(-119.5 -795.4)"/><path class="cls-1" d="M1156.7,923.8v124.7h-16v-21.4a68.18,68.18,0,0,1-22.6,18.4,63.25,63.25,0,0,1-72.7-13,64.13,64.13,0,0,1-18.7-46.6,63.37,63.37,0,0,1,18.9-45.9,61.4,61.4,0,0,1,45.5-19.1,59.93,59.93,0,0,1,27.9,6.2,62.15,62.15,0,0,1,21.8,19.6V923.8Zm-64.4,12.4a48.57,48.57,0,0,0-42.7,25,50.23,50.23,0,0,0,0,50.3,49.23,49.23,0,0,0,18.1,18.7,47.65,47.65,0,0,0,24.4,6.7,50.67,50.67,0,0,0,24.9-6.6,46.49,46.49,0,0,0,18.1-17.9,50.51,50.51,0,0,0,6.3-25.5,49.54,49.54,0,0,0-14.2-36.1A46.38,46.38,0,0,0,1092.3,936.2Z" transform="translate(-119.5 -795.4)"/><path class="cls-1" d="M1182.5,923.8h16v21.6a62,62,0,0,1,17.2-17.4,49.26,49.26,0,0,1,25.6-7.2,42.45,42.45,0,0,1,17.2,3.6,36.93,36.93,0,0,1,13.3,9.5,52,52,0,0,1,9,16.9,58.78,58.78,0,0,1,20-22.3,47.5,47.5,0,0,1,25.9-7.6,41.2,41.2,0,0,1,22.9,6.5,39.19,39.19,0,0,1,14.7,18.2q4.8,11.7,4.8,35.1v67.9h-16.4V980.7c0-13.4-1-22.5-2.9-27.5a24.81,24.81,0,0,0-9.8-12.1,30,30,0,0,0-16.5-4.6,36.12,36.12,0,0,0-21.3,6.9,39.21,39.21,0,0,0-14.1,18.3q-4.5,11.4-4.5,38.4v48.6h-16V985q0-22.5-2.7-30.6a25.24,25.24,0,0,0-9.8-12.9,28.93,28.93,0,0,0-16.7-4.9,36,36,0,0,0-20.8,6.7,39.69,39.69,0,0,0-14.4,18c-3.1,7.6-4.6,19.1-4.6,34.7v52.7h-16Z" transform="translate(-119.5 -795.4)"/><path class="cls-1" d="M1394.1,923.8h16v22.9a66,66,0,0,1,21.8-19.6,58.72,58.72,0,0,1,27.6-6.5,61.72,61.72,0,0,1,45.4,19.1,63.21,63.21,0,0,1,18.9,45.9,64.38,64.38,0,0,1-18.7,46.6,63,63,0,0,1-72.5,13,70.49,70.49,0,0,1-22.6-18.4v67.1h-16V923.8Zm64.3,12.4a47.4,47.4,0,0,0-35.1,14.5,49.54,49.54,0,0,0-14.2,36.1,51.56,51.56,0,0,0,6.3,25.5,45.43,45.43,0,0,0,18.2,17.9,50.67,50.67,0,0,0,24.9,6.6,47.29,47.29,0,0,0,24.3-6.7,48.54,48.54,0,0,0,18.1-18.7,50.72,50.72,0,0,0,0-50.3,48.42,48.42,0,0,0-42.6-25Z" transform="translate(-119.5 -795.4)"/><text class="cls-2" transform="translate(1098.67 105.07)">S</text><text class="cls-2" transform="translate(1133.66 105.07)">H</text><text class="cls-3" transform="translate(1176.44 105.07)">A</text><text class="cls-2" transform="translate(1217.34 105.07)">N</text><text class="cls-2" transform="translate(1260.87 105.07)">G</text><text class="cls-2" transform="translate(1303.87 105.07)">H</text><text class="cls-3" transform="translate(1346.65 105.07)">A</text><text class="cls-4" transform="translate(1387.55 105.07)">I</text><path class="cls-5" d="M290.7,938.5c20.3-8.5,21.1-40.8,12.1-57.7-12.1-22.6-42.7-18.9-63.3-12.9,5.7-16.4,16.2-38.9,35.1-42.1s37.3,8.5,53.7,16.1c14.6,6.7,40.3,15.2,50.9-3.2,3.2-7.8-6.3-14.2-14.7-19.5A145,145,0,0,0,338,805.4c200.6-42.5,206.1,378.3-6.2,318.3a252.73,252.73,0,0,1-44.3-17.7c19.8,1.6,41.2-.5,57-13.3,13.5-11,20.8-34-1.6-39.3-20.1-4.8-42,7.4-61.9,9.1-25,2.1-46.3,2.7-60.5-17,11-1.4,19.5-4.3,23.8-7.4,7.5-5.4,14.7-13,15.4-22.6,1.3-18.5-12.9-35.7-28.8-43.6a34.08,34.08,0,0,0-24.1-2.6c-10.2,3-13.2,11.8-20.3,18.6s-13.5,11.5-23.2,13.5c-11.2,2-22.1-3.4-30.8-10.1a152.33,152.33,0,0,1-13-12.4c18.1,2.7,42.2,7.3,52.8-13.1,8.5-16.3-1.6-34.9,7.4-51.4,11.6-21.2,41-4.6,55.4,3.7C251.8,927.4,268.3,947.9,290.7,938.5Z" transform="translate(-119.5 -795.4)"/><path class="cls-6" d="M388.6,1027.1a98.94,98.94,0,0,0,.7-111.2h0a7.42,7.42,0,1,0-12.3,8.3h0a84,84,0,0,1-.6,94.4h0a7.41,7.41,0,1,0,12.2,8.4Z" transform="translate(-119.5 -795.4)"/><path class="cls-6" d="M417.2,1046.9a133.79,133.79,0,0,0,1-150.3h0a7.43,7.43,0,0,0-12.4,8.2.1.1,0,0,0,.1.1h0a118.85,118.85,0,0,1-.9,133.6h0a7.39,7.39,0,0,0,1.9,10.3,7.48,7.48,0,0,0,10.3-1.9Z" transform="translate(-119.5 -795.4)"/><path class="cls-6" d="M433.4,886.4a152,152,0,0,1-1.1,170.8h0a7.41,7.41,0,1,0,12.2,8.4h0a166.81,166.81,0,0,0,1.2-187.5h0a7.43,7.43,0,0,0-10.3-2.1,7.6,7.6,0,0,0-2,10.4Z" transform="translate(-119.5 -795.4)"/><path class="cls-7" d="M1960.7,944.9h-75.2V869.7a18.88,18.88,0,0,0-37.6,0v75.2h-75.2a19,19,0,0,0-18.9,18.9h0a19,19,0,0,0,18.9,18.9h75.2v75.2a18.88,18.88,0,0,0,37.6,0V982.6h75.2a19,19,0,0,0,18.9-18.9h0A18.93,18.93,0,0,0,1960.7,944.9Z" transform="translate(-119.5 -795.4)"/></svg>